<svg width="1920.000000" height="480.000000" viewBox="0 0 1920 480" fill="none" xmlns="http://www.w3.org/2000/svg" xmlns:xlink="http://www.w3.org/1999/xlink">
	<desc>
			Created with Pixso.
	</desc>
	<defs>
		<clipPath id="clip2_2">
			<rect id="Frame 2" width="1920.000000" height="480.000000" fill="white" fill-opacity="0"/>
		</clipPath>
	</defs>
	<rect id="Frame 2" width="1920.000000" height="480.000000" fill="#FFFFFF" fill-opacity="0"/>
	<g clip-path="url(#clip2_2)">
		<path id="Zapret" d="M1676.02 30.29Q1670.98 26.93 1663.71 26.93Q1637.93 29.28 1637.93 30.45L1637.93 31.62Q1639.61 31.62 1639.85 32.2Q1639.88 32.29 1639.88 32.4L1639.88 33.57L1639.88 33.57Q1637.15 33.63 1635.59 94.51Q1630.12 102.32 1630.12 107.4Q1582.89 107.79 1582.85 109.35L1582.85 109.35L1575.04 144.12Q1580.9 154.28 1584.8 154.67Q1590.66 151.93 1596.52 151.93L1621.91 151.93Q1622.52 151.93 1623.09 152.07Q1628.8 153.43 1631.29 168.34L1631.29 171.46L1630.12 194.51L1625.43 247.64Q1627.38 299.59 1628.16 310.14Q1628.16 326.52 1635.86 331.91Q1637.34 332.94 1639.1 333.57Q1642.87 336.64 1647.04 339.03Q1661.43 347.25 1680.51 347.25L1710.59 346.46Q1718.4 346.46 1721.72 343.53Q1722.18 343.13 1722.57 342.65Q1724.93 339.73 1724.26 334.35Q1722.3 313.65 1721.52 313.65L1698.09 314.82L1691.05 314.82Q1684.8 314.82 1680.51 312.09Q1678.63 312.09 1677.09 311.37Q1672.23 309.09 1670.74 299.59Q1667.23 299.59 1662.54 218.73L1665.27 181.23L1664.88 180.06L1663.71 180.06L1663.71 182.79Q1662.55 189.74 1661.02 189.82Q1661 189.82 1660.98 189.82Q1658.63 189.04 1658.24 178.1L1658.24 175.76L1659.41 171.46L1664.88 177.71L1665.27 177.71Q1667.62 155.84 1669.57 155.84L1691.05 156.23L1717.23 155.84L1718.79 156.23L1718.79 157.01L1717.23 158.57L1714.49 158.57L1710.98 158.96L1710.98 159.75Q1710.98 159.82 1710.99 159.88Q1711.26 161.33 1717.23 161.7Q1723.09 161.7 1732.46 158.57L1732.46 157.79Q1726.6 152.71 1726.6 149.98L1731.68 132.79L1730.51 124.98L1730.51 123.81Q1730.51 121.46 1734.41 116.39Q1731.68 114.04 1729.73 114.04Q1729.73 114.01 1729.72 113.97Q1729.33 109.75 1683.63 109.75Q1668.47 109.75 1668.02 107.17Q1668.01 107.09 1668.01 107.01L1671.52 71.07Q1673.09 44.12 1677.77 31.62Q1676.93 30.9 1676.02 30.29ZM1648.48 37.48L1648.87 37.48L1649.65 38.26L1649.65 39.82L1648.48 39.82L1648.48 37.48ZM1664.1 39.82L1665.66 38.26L1669.57 38.26L1670.74 39.82L1670.74 41.39Q1670.74 44.9 1666.05 49.59L1665.27 49.59L1664.1 40.6L1664.1 39.82ZM1650.43 51.54L1651.6 52.71L1651.6 56.62L1650.43 63.26L1649.65 63.26L1649.65 61.7Q1649.65 55.45 1650.43 51.54ZM1651.99 69.12L1652.77 69.12Q1653.55 69.12 1654.34 71.46L1655.12 90.6L1655.12 99.59Q1655.12 108.64 1652.77 109.3Q1652.58 109.35 1652.38 109.35L1651.6 109.35L1650.43 108.18L1650.43 107.79L1651.99 69.12ZM247.3 94.12L252.38 101.15L253.16 101.54Q253.16 101.73 253.07 101.86Q252.07 103.32 239.49 96.85L237.53 96.85L237.53 96.07L240.27 95.29Q228.94 97.25 213.32 98.81L207.07 94.12L206.68 94.51L206.68 95.29Q206.68 96.07 209.8 99.2Q197.69 92.56 195.74 94.51Q191.44 101.15 190.27 101.15L192.61 107.4L191.83 132.4L191.83 146.46Q191.83 155.06 196.91 165.6Q222.37 163.29 222.69 159.07Q222.69 159.02 222.69 158.96L219.96 136.7L223.08 130.06L243.39 131.62L244.96 131.62Q286.75 124.98 303.94 124.98L304.72 124.98Q310.97 124.98 312.93 126.15L312.53 128.1Q298.86 143.73 295.35 148.81Q268.39 186.31 240.27 233.96Q215.66 270.68 215.27 272.64Q179.72 318.73 178.94 332.79L178.94 337.48L178.16 339.43Q178.18 339.48 178.2 339.53Q179.86 343.34 190.27 343.34L191.05 343.34L200.43 342.17L208.63 345.29Q214.49 345.29 219.18 342.95L274.64 338.26Q355.11 336.31 360.19 336.7Q357.46 281.62 353.55 281.23Q353.65 281.5 353.59 281.72Q352.89 284.05 333.63 280.84Q332.22 281.62 331.13 282.71Q329.49 284.35 328.55 286.7L326.21 283.96Q322.3 307.79 318.78 307.79Q289.49 304.28 271.52 304.28L234.02 306.62L233.63 306.62Q230.12 306.62 229.13 305.04Q229.02 304.86 228.94 304.67L228.94 304.28Q243.78 277.71 253.16 266.39Q261.75 251.54 263.32 250.76Q280.89 216.39 302.77 182.79Q310.97 166.39 312.53 164.82Q318 151.93 325.03 142.17Q342.22 121.46 342.22 112.87L341.83 112.48L341.83 100.37Q341.83 99.59 339.49 96.85Q339.49 93.34 340.66 91.78Q340.66 91.2 340.45 90.72Q339.51 88.58 334.41 88.26L312.53 89.04Q307.85 90.6 262.93 92.95Q259.02 92.95 247.3 94.12ZM246.88 94.13L246.91 94.12L247.3 94.12Q247.09 94.12 246.88 94.13ZM246.88 94.13L240.66 95.29Q243.94 94.2 246.88 94.13ZM259.41 98.81L259.41 98.81L259.41 98.8Q259.46 96.46 315.27 95.29Q319.08 95.29 322.79 94.67Q326.3 94.09 329.72 92.95L329.72 93.73L319.57 101.15L312.53 101.15Q309.02 101.15 305.5 102.71L296.52 101.15Q259.44 100.37 259.41 98.81ZM281.28 103.89L300.43 103.1L308.63 103.89L307.85 104.28L280.5 104.28L280.5 103.89L281.28 103.89ZM228.55 105.45L229.72 104.28L235.97 104.28L238.32 105.06L238.32 105.45Q238.32 105.6 238.27 105.75Q237.85 107.01 233.63 107.01L228.55 106.62L228.55 105.45ZM262.93 105.84L264.88 105.84L266.05 107.01L266.05 107.79Q263.5 107.79 262.99 106.77Q262.95 106.7 262.93 106.62L262.93 105.84ZM318.39 107.79L321.52 107.01L321.91 107.01L321.91 107.79Q316.05 110.14 307.07 110.53L287.14 114.04L284.41 114.04L278.94 112.87L278.94 112.48Q286.75 110.53 292.61 107.4L318.39 107.79ZM212.53 108.96L212.93 108.96Q234.76 110.91 234.8 113.25L234.8 113.26L234.8 114.43L228.16 114.43L218.39 114.04Q216.83 114.04 213.71 117.17L212.93 117.17L212.53 108.96ZM1585.69 115.72Q1585.2 115.07 1585.2 114.04Q1585.2 113.78 1585.29 113.57Q1585.78 112.48 1588.71 112.48L1605.12 112.48Q1624.06 112.48 1624.26 114.39Q1624.26 114.41 1624.26 114.43L1624.26 115.21Q1610.59 116.78 1594.57 116.78L1588.71 116.78Q1586.52 116.78 1585.69 115.72ZM1701.99 114.43L1707.07 112.48L1710.98 112.48Q1712.28 112.48 1713.21 113.07Q1714.78 114.07 1715.27 116.78Q1715.27 117.59 1714.9 117.84Q1714.73 117.95 1714.49 117.95L1705.51 117.95Q1699.26 117.95 1690.66 115.6L1690.66 114.43L1701.99 114.43ZM1716.84 117.17L1718.01 116.39L1722.3 116.39L1722.3 116.78Q1722.28 116.89 1722.23 116.99Q1721.63 118.34 1718.01 118.34L1716.84 117.95L1716.84 117.17ZM233.63 124.98L233.63 123.03Q235.1 122.29 236.66 121.9Q238.41 121.46 240.27 121.46L246.13 121.46L247.3 122.64L247.3 123.03L234.02 124.98L233.63 124.98ZM1590.66 122.25L1591.45 121.46L1595.74 121.46Q1629.54 121.85 1630.11 126.39Q1630.12 126.46 1630.12 126.54Q1630.12 126.58 1630.11 126.62Q1629.84 128.5 1616.84 128.5Q1591.23 128.5 1590.68 124.76Q1590.66 124.67 1590.66 124.59L1590.66 122.25ZM1673.48 126.15L1674.65 124.98L1677.38 124.98L1707.07 127.71L1707.46 127.71Q1707.46 128.71 1706.97 129.28Q1706.3 130.06 1704.73 130.06L1703.16 130.06L1694.18 128.5L1687.54 128.89Q1673.69 128.5 1673.48 126.6Q1673.48 126.57 1673.48 126.54L1673.48 126.15ZM293.78 170.68L293.78 168.73Q305.5 149.98 309.8 140.6Q320.35 126.15 327.38 126.15L328.94 126.15L328.94 126.93L312.53 148.42Q297.3 170.68 293.78 170.68ZM547.22 128.1L498.78 129.28Q496.44 129.28 485.5 135.53Q462.07 150.76 455.82 168.73Q453.86 194.51 453.08 196.85Q453.08 196.98 453.1 197.1Q453.52 200.04 464.02 201.54Q466.36 194.9 467.93 194.9L470.27 194.12Q483.55 194.12 484.33 192.17Q485.87 176.75 493.88 166.27Q493.99 166.13 494.1 166Q494.1 161.7 514.8 157.4L530.82 159.75Q549.81 159.75 559.06 169.24Q561.22 171.46 562.85 174.2Q571.05 188.3 575.39 203.51Q576.22 206.41 576.91 209.35Q576.91 209.96 576.61 210.34Q576.15 210.92 574.96 210.92L572.61 210.92Q566.36 206.62 551.52 206.62L549.18 206.62L531.6 207.01Q511.68 207.01 491.36 217.95Q485.11 219.9 478.86 227.32Q466.36 241.78 461.28 257.79Q458.15 262.81 456.69 268.28Q455.43 273.02 455.43 278.1L455.43 289.43Q455.43 298.87 459.43 306.07Q460.73 308.42 462.46 310.53Q471.05 327.71 473.78 330.06Q477.07 332.91 480.66 335.3Q493.29 343.73 509.72 346.46L511.68 346.46Q530.43 346.46 545.66 341.78Q546.05 341.39 592.14 323.42Q617.53 345.68 623.78 346.46L624.18 346.46Q626.91 346.46 637.07 336.31Q650.74 326.15 650.74 321.46L650.74 320.68Q646.83 320.68 633.55 307.79Q619.1 290.6 619.1 278.89L620.66 240.21L620.27 230.45Q620.27 208.96 614.02 202.71Q608.94 176.15 600.35 167.17Q596.05 155.06 573.39 133.57Q553.47 128.1 547.22 128.1ZM195.74 130.84L196.91 130.84L198.08 132.01L198.08 132.79L196.91 132.79L195.74 132.01L195.74 130.84ZM1715.27 135.14L1716.84 133.57L1721.91 133.57L1723.09 134.35Q1722.88 134.96 1722.5 135.41Q1721.39 136.7 1718.79 136.7L1716.84 136.7L1715.27 135.53L1715.27 135.14ZM1593.4 136.31L1594.96 135.14L1598.48 135.14Q1611.37 135.14 1616.05 136.7L1616.05 137.48L1615.66 137.87L1605.12 138.26L1595.35 137.87Q1594.16 137.87 1593.7 137.29Q1593.4 136.92 1593.4 136.31ZM541.75 137.09L542.53 135.92L544.49 135.92L545.66 137.87L545.27 138.65L542.93 138.65L541.75 137.09ZM571.44 139.04L572.22 139.04Q574.18 139.04 577.3 142.17L577.3 142.95L576.91 142.95Q574.57 142.95 571.44 139.82L571.44 139.04ZM509.72 142.17L509.72 141Q513.24 139.43 521.83 139.43L523.39 139.43L523.39 141Q517.14 143.34 513.63 143.34Q510.16 143.34 509.73 142.2Q509.73 142.18 509.72 142.17ZM1593.4 141.39L1625.43 142.56L1626.21 143.73L1626.21 144.12L1623.09 144.9Q1593.65 144.9 1593.4 142.21Q1593.4 142.19 1593.4 142.17L1593.4 141.39ZM764.33 141.78L763.94 141.78Q753.39 142.56 751.44 143.34Q746.56 143.34 744.12 145.78Q741.68 148.22 741.68 153.1L742.07 174.59L743.24 176.15L753.39 176.15L753.78 188.26L753.78 335.92Q756.13 362.09 756.13 371.46L756.13 399.2Q756.13 416.78 754.57 418.34Q750.97 418.34 748.55 420.03Q747.3 420.91 746.36 422.25L746.36 426.93L745.58 427.32L742.85 427.32Q742.85 426.07 742.35 425.82Q742.22 425.76 742.07 425.76L740.89 425.76L740.5 427.32Q740.5 429.28 743.24 433.18L743.24 433.57Q743.24 433.96 740.89 434.75L740.5 436.7L740.89 437.09Q749.1 453.89 757.69 456.23Q758.47 456.23 765.89 450.76L793.24 452.71Q800.66 452.71 807.3 450.76L805.35 443.34Q805.35 436.19 801.94 431.53Q800.88 430.09 799.49 428.89Q799.49 427.52 800.17 426.84Q800.85 426.15 802.22 426.15L802.22 425.76L799.49 423.42Q797.09 423.42 795.51 422.28Q792.46 420.08 792.46 413.65L792.46 409.75L792.07 382.4L789.33 364.43L789.33 359.35Q789.33 342.95 786.99 338.65L789.33 337.09Q797.14 337.09 808.08 339.04Q820.58 345.68 824.88 345.68Q835.43 345.68 863.55 335.92Q876.44 335.92 881.91 330.45Q882.12 327.92 883.35 326.08Q884.4 324.5 886.21 323.42Q893.63 321.07 900.66 312.48L900.66 312.09L899.49 310.92L903 307.79Q906.13 304.67 920.58 281.23Q924.49 281.23 929.96 234.75Q929.96 229.67 926.05 216.39Q922.14 203.1 897.53 178.5Q889.83 172.59 881.5 167.79Q864.47 157.96 844.8 152.71L843.24 152.71L813.16 158.96L809.25 157.79L799.1 158.57Q794.41 157.4 793.63 155.45Q787.38 155.06 786.21 153.1Q786.21 152.62 786.39 152.21Q787.25 150.37 792.07 150.37L792.07 149.59Q792.07 149.55 792.06 149.5Q791.88 148 785.43 147.25Q777.61 141.78 764.33 141.78ZM1679.34 143.73L1681.29 143.73Q1687.54 143.73 1693.79 148.03L1693.79 148.81L1693.01 148.81Q1679.73 145.68 1679.34 144.9L1679.34 143.73ZM1430.98 158.96Q1407.54 144.9 1391.13 144.9Q1371.99 143.34 1368.48 144.9Q1355.2 146.46 1345.82 149.2Q1332.84 153.53 1328.51 162.18Q1328.15 162.9 1327.85 163.65Q1314.92 179.82 1307.32 198.2Q1296.6 224.22 1296.6 254.67L1296.6 255.06Q1296.6 265.6 1299.34 276.93Q1307.93 306.23 1307.93 309.35Q1312.23 319.12 1318.87 326.15Q1332.32 343.65 1348.1 346.07Q1350.64 346.46 1353.24 346.46L1375.51 354.28Q1386.05 354.28 1411.45 349.2Q1433.32 342.95 1442.3 335.92Q1457.54 323.03 1459.49 323.03Q1465.99 323.75 1468.49 327.29Q1470.04 329.5 1470.04 332.79L1471.6 332.79Q1477.07 332.79 1489.57 316.39L1489.57 314.82Q1475.12 296.85 1466.52 283.57Q1455.59 276.15 1452.07 272.64Q1439.57 278.1 1430.59 295.29L1431.37 297.25Q1436.84 298.03 1436.84 298.81L1436.84 299.98Q1414.18 323.81 1407.15 325.37Q1398.55 330.45 1395.82 330.45Q1379.41 330.45 1366.52 326.15Q1351.29 320.68 1338.4 298.03Q1331.37 290.21 1331.37 285.14L1327.85 281.23L1327.85 280.06L1330.2 281.23L1330.2 280.84L1329.8 278.89Q1325.12 276.15 1325.12 261.31Q1325.12 251.93 1322.38 247.64Q1322.38 244.51 1327.07 237.48L1335.27 237.48Q1357.93 237.48 1414.18 242.17Q1420.82 241 1425.51 241L1458.71 241L1461.05 240.6Q1461.05 235.53 1466.91 221.85L1466.52 218.73Q1466.52 212.09 1450.9 179.28Q1450.9 173.81 1430.98 158.96ZM474.57 154.28L474.57 153.5Q481.21 145.68 485.11 145.68L485.5 145.68L485.5 146.85Q478.47 154.28 474.96 154.28L474.57 154.28ZM1355.2 153.5L1355.2 153.1L1355.98 152.32Q1370.04 146.07 1381.37 146.07L1381.76 146.07L1382.93 147.25Q1382.93 147.45 1382.87 147.64Q1382.46 148.86 1379.41 149.2Q1362.23 153.5 1355.98 153.5L1355.2 153.5ZM1719.96 151.15Q1711.76 151.15 1701.21 147.64Q1701.21 147.6 1701.22 147.57Q1701.44 146.07 1711.76 146.07L1720.35 146.07L1721.52 147.25L1721.52 149.59L1719.96 151.15ZM746.91 151.35Q746.36 150.44 746.36 149.2Q746.36 148.65 746.61 148.25Q747.24 147.25 749.49 147.25L750.27 147.25Q752.18 147.25 753.14 148.2Q753.55 148.61 753.78 149.2L753.78 150.37Q753.45 151.37 752.76 151.94Q751.84 152.71 750.27 152.71L748.32 152.71Q747.4 152.16 746.91 151.35ZM196.52 155.84L195.74 154.28Q197.3 149.98 199.25 149.2L200.82 149.2L201.6 150.37Q200.03 154.28 197.3 155.84L196.52 155.84ZM526.91 152.32L528.86 150.76L531.99 150.76L534.33 153.1L533.16 154.28L528.08 154.28L526.91 152.32ZM1172.17 159.43Q1170.02 158.96 1167.77 158.96Q1112.69 153.1 1081.05 167.17L1081.05 164.43Q1081.05 162.09 1084.56 156.62L1084.56 155.45Q1070.51 151.54 1064.65 151.54L1054.88 151.54Q1051.79 151.54 1048.74 151.94Q1034.88 153.72 1022.07 163.65Q1022.46 170.64 1023.23 170.68L1023.24 170.68Q1023.24 191.88 1026.91 192.54Q1027.03 192.56 1027.15 192.56L1027.15 193.34Q1024.02 194.51 1024.02 195.29L1024.02 196.07L1024.8 196.85Q1035.74 192.56 1040.43 192.56L1042.77 192.56Q1043.85 192.56 1044.71 193Q1047.85 194.64 1047.85 202.32L1050.19 309.35L1050.19 310.14L1049.02 310.53Q1039.32 310.53 1038.55 313.17Q1038.48 313.4 1038.48 313.65Q1025.47 315.65 1023.57 321.36Q1023.24 322.33 1023.24 323.42Q1023.24 330.84 1024.02 337.87Q1024.02 341.02 1025.59 342.76Q1027.52 344.9 1031.84 344.9Q1031.85 346.86 1076.76 348.42L1084.56 346.07L1086.13 346.07L1104.49 344.12L1106.84 341L1107.62 319.12L1106.05 314.04L1106.05 313.65Q1106.05 313.51 1106.02 313.37Q1105.6 311.67 1099.8 311.31L1090.43 311.31Q1087.43 311.31 1086.35 309.87Q1085.74 309.06 1085.74 307.79Q1086.52 291 1083.79 224.2Q1088.48 215.6 1103.31 199.98Q1124.41 192.17 1139.26 192.17Q1154.88 192.17 1156.05 194.12Q1165.04 203.89 1165.04 209.35Q1165.04 210.55 1165.41 211.61Q1167.36 217.15 1179.49 219.12L1183.4 219.12Q1201.37 219.12 1204.1 214.43L1199.02 185.53Q1195.51 180.45 1193.55 180.45Q1184.56 162.14 1172.17 159.43ZM1339.57 160.14L1339.57 159.75Q1339.57 159.07 1339.74 158.44Q1340.68 155.08 1346.6 153.1L1347.38 153.1L1348.95 154.67L1348.95 157.01Q1348.95 158.96 1341.13 160.92L1340.74 160.92L1339.57 160.14ZM1388.01 155.84L1399.73 155.84Q1404.41 156.62 1404.41 157.4L1404.41 158.96L1404.02 158.96Q1388.08 158.19 1388.01 156.64L1388.01 156.62L1388.01 155.84ZM787.77 158.96L788.55 157.79L789.33 157.79L790.11 158.96L790.11 160.14L789.33 161.31L788.55 161.31L787.77 160.14L787.77 158.96ZM848.32 157.79L849.1 157.79Q858.31 158.94 858.47 160.85Q858.47 160.88 858.47 160.92L858.47 161.31L856.13 161.31Q853 161.31 848.32 159.35L848.32 157.79ZM750.27 159.35L751.44 158.57L753.39 158.57Q753.41 158.58 753.43 158.58Q754.57 159.01 754.57 162.48L754.57 163.65L754.18 166.39L753.39 166.39Q751.3 165.08 750.61 163.24Q750.27 162.34 750.27 161.31L750.27 159.35ZM1049.02 158.96L1050.19 158.96L1054.88 162.48L1054.88 163.26L1051.37 163.26L1049.02 160.53L1049.02 158.96ZM1646.91 164.82L1646.91 161.7Q1646.91 159.98 1647.75 159.31Q1648.06 159.07 1648.48 158.96L1648.87 158.96L1649.65 161.7L1649.65 163.26Q1649.65 164.98 1648.81 165.65Q1648.51 165.89 1648.09 166L1646.91 164.82ZM1075.19 160.14L1077.15 159.35L1078.31 160.14L1077.15 161.7L1075.19 161.7L1075.19 160.14ZM1371.99 162.09L1371.99 161.7Q1371.99 161.59 1372.02 161.49Q1372.33 160.11 1377.07 159.75L1378.24 159.75Q1384.65 159.75 1387.86 162.95Q1388.36 163.46 1388.79 164.04L1388.79 165.6L1388.01 166Q1371.99 163.65 1371.99 162.09ZM800.66 163.65L799.49 163.26Q799.49 163.21 799.49 163.15Q799.63 162.05 802.61 161.31L803 161.31L803.78 162.48L802.61 163.65L800.66 163.65ZM1149.02 164.04L1146.29 164.04L1146.29 163.26Q1146.29 162.48 1149.41 161.7L1150.59 162.87L1149.02 164.04ZM1395.82 164.43L1395.82 164.04Q1395.82 164.01 1395.82 163.98Q1395.93 163.25 1398.55 162.87L1399.73 162.87Q1406.33 162.87 1409.83 166.17Q1411.3 167.55 1412.23 169.51L1420.04 173.03Q1425.12 174.2 1426.68 175.37L1426.68 175.76L1426.29 176.54L1423.95 175.76L1420.04 177.32L1419.65 177.32Q1418.09 177.32 1395.82 164.43ZM862.38 163.65L862.38 163.26Q872.83 165 873.96 169.23Q874.1 169.74 874.1 170.29L872.93 170.29Q867.23 168.62 863.55 164.94Q862.94 164.32 862.38 163.65ZM1109.56 176.54L1109.56 175.76Q1109.06 171.74 1110.65 168.86Q1112.76 165.04 1118.55 163.26L1118.94 163.26L1118.94 165.21Q1113.09 176.54 1109.56 176.54ZM1171.29 164.04L1172.06 163.26L1173.63 163.26L1174.41 164.04L1174.41 164.43L1173.63 165.6L1172.06 165.6L1171.29 164.43L1171.29 164.04ZM1133.79 164.04L1138.48 163.65L1140.81 163.65L1141.6 164.04Q1141.53 164.34 1141.36 164.59Q1140.68 165.6 1138.48 165.6L1134.56 165.6L1133.79 164.43L1133.79 164.04ZM1037.9 169.84Q1034.92 169.47 1032.23 166.78Q1032.23 166.71 1032.24 166.65Q1032.44 165.18 1037.69 164.43L1039.26 166.39L1039.26 169.12L1038.87 169.9Q1038.38 169.9 1037.9 169.84ZM1156.05 165.6L1157.62 164.43L1158.79 164.43L1158.79 165.21L1158.01 166L1156.05 166L1156.05 165.6ZM839.33 170.68Q823.32 168.73 823.32 167.17Q824.1 165.21 833.08 164.82L839.33 164.82L842.85 165.21L842.85 167.17L841.28 168.73L841.28 169.12L843.24 169.9L847.93 169.12L849.1 169.12L850.27 170.29L848.71 171.46L842.85 171.46Q839.5 171.46 839.34 170.75Q839.33 170.72 839.33 170.68ZM1126.37 174.98L1124.41 167.17Q1124.41 167.03 1124.44 166.91Q1124.72 165.95 1127.15 165.6L1128.31 165.6L1129.49 166.78L1129.49 174.98L1126.37 174.98ZM1074.41 168.34L1074.41 167.56L1075.98 166.39L1077.15 166.39L1077.15 167.56L1075.19 169.12L1074.41 168.34ZM1364.96 167.95L1364.96 168.73Q1353.24 172.25 1349.34 175.37Q1349.34 174.99 1349.4 174.62Q1350.19 170.06 1360.66 167.17L1364.57 167.17L1364.96 167.95ZM1659.41 167.17L1661.37 168.73L1661.37 169.9L1660.98 169.9L1659.41 168.34L1659.41 167.17ZM1647.7 171.46L1648.09 169.51L1648.87 169.51L1649.65 170.29L1649.65 175.76L1648.09 175.76L1647.7 173.42L1647.7 171.46ZM1328.63 202.32L1328.63 201.15Q1334.49 194.9 1338.79 186.7Q1348.95 177.32 1381.37 170.68L1394.65 173.03Q1397.61 173.33 1400.41 174.17Q1408.33 176.55 1414.96 183.18Q1434.49 200.76 1434.49 205.84L1434.49 213.26Q1434.49 216.39 1432.15 219.9Q1429.99 219.18 1429.82 218.14Q1429.8 218.04 1429.8 217.95Q1424.34 217.95 1408.71 212.87L1403.63 213.26L1399.73 212.09Q1328.63 206.62 1328.63 202.32ZM763.94 195.68Q761.6 192.56 761.6 186.7Q761.6 173.55 764.13 173.05Q764.23 173.03 764.33 173.03Q764.41 173.03 764.49 173.04Q767.85 173.56 767.85 195.68L767.85 196.46Q767.85 218.73 765.89 287.87L766.68 314.82Q765.5 348.01 763.94 348.03L763.94 348.03L765.89 351.54L765.89 352.32Q765.89 353.19 765.6 353.93Q764.82 355.88 761.99 357.01L761.6 357.01L761.21 356.23L760.43 322.64L760.43 318.73L761.99 307.01Q760.43 298.81 760.43 286.7L760.43 258.57Q760.43 241.78 763.94 210.14L761.21 203.89L763.94 196.46L763.94 195.68ZM880.74 174.98L881.91 174.98Q882.85 174.98 883.6 175.35Q884.72 175.92 885.43 177.32L885.43 178.1L883.86 178.5Q881.13 177.32 880.74 175.76L880.74 174.98ZM1332.93 178.5L1332.93 177.71Q1334.88 175.37 1336.84 175.37L1338.79 175.37L1338.79 175.76Q1338.79 175.8 1338.79 175.83Q1338.67 177.35 1333.71 178.5L1332.93 178.5ZM1183.01 177.32L1184.18 177.32Q1186.52 177.32 1189.65 180.45L1189.65 181.23L1188.48 181.23Q1186.13 181.23 1183.01 178.1L1183.01 177.32ZM1161.91 188.26L1159.96 188.26Q1160.74 185.92 1161.13 185.92Q1161.13 184.87 1161.42 183.9Q1162.51 180.19 1167.77 177.71Q1169.02 177.71 1169.27 178.21Q1169.34 178.34 1169.34 178.5L1169.34 178.89Q1163.87 187.87 1161.91 188.26ZM1038.48 182.79L1038.48 182.01Q1038.59 181.72 1038.77 181.47Q1039.78 180.06 1042.77 180.06L1043.55 180.06L1044.34 181.23Q1044.31 181.31 1044.29 181.39Q1043.72 182.79 1039.65 182.79L1038.48 182.79ZM1427.96 185.82Q1426.76 185.08 1426.29 183.18Q1426.29 182.46 1426.62 181.96Q1427.37 180.84 1429.8 180.84L1431.37 182.79L1431.37 185.14L1430.59 186.31L1429.8 186.31Q1428.73 186.31 1427.96 185.82ZM827.63 190.72Q827.61 190.66 827.61 190.6Q827.61 190.5 827.62 190.39Q828.11 185.07 853 182.01L856.13 182.01L857.69 184.35L855.74 185.53L834.25 188.26L835.43 190.6L835.43 191.39L832.69 191.78Q827.87 191.78 827.63 190.72ZM470.27 183.18L471.44 182.4L472.22 183.18L472.22 186.31Q472.22 188.02 471.39 188.69Q471.08 188.94 470.66 189.04L470.27 189.04L470.27 183.18ZM897.53 184.35L897.93 183.57Q904.34 186.97 904.56 190.73Q904.57 190.86 904.57 191L903.78 191Q901.05 189.04 897.53 184.35ZM1083.01 184.75L1084.56 184.35L1086.91 184.75L1086.91 185.92L1085.74 187.09L1084.56 187.09L1083.01 185.92L1083.01 184.75ZM1324.73 186.31L1325.51 185.14L1327.07 185.14L1327.07 185.53L1325.51 186.7L1324.73 186.7L1324.73 186.31ZM867.46 185.53L869.02 185.53L869.8 186.7L869.8 187.48L869.02 187.48L867.46 185.92L867.46 185.53ZM793.24 190.6L795.58 188.26L796.75 188.26L796.75 189.43L794.8 191.39L793.24 191.39L793.24 190.6ZM1434.49 188.26L1436.05 188.26L1436.84 189.04Q1436.87 189.04 1436.9 189.04Q1440.38 189.15 1443.48 201.54L1442.3 202.32L1440.74 202.32Q1438.79 201.15 1434.49 188.26ZM855.74 189.43L858.86 189.43Q867.07 190.21 868.24 191.78L867.07 192.56L864.33 192.56Q857.3 192.56 855.74 189.82L855.74 189.43ZM774.88 196.46L774.88 194.12Q774.88 190.5 776.22 189.9Q776.33 189.85 776.44 189.82L777.22 189.82Q776.46 196.28 774.96 196.46Q774.92 196.46 774.88 196.46ZM815.11 191.78L815.89 191.78Q817.2 193.87 819.04 194.56Q819.94 194.9 820.97 194.9L822.14 194.9L840.5 193.34L844.02 193.34Q861.21 197.25 864.33 202.32Q869.28 205.83 872.81 210.42Q875.97 214.53 878 219.51Q879.57 221.23 880.82 223.16Q885.82 230.84 885.82 241.78Q885.82 249.2 888.99 250.98Q889.15 251.07 889.33 251.15L889.33 252.32L886.21 256.23L886.21 257.01L886.99 262.09L886.99 268.34Q886.99 283.18 867.07 298.81Q854.57 303.1 849.88 307.79Q835.03 316.39 823.32 316.39L821.75 316.39Q821.34 316.39 821 316.22Q820.09 315.76 819.8 314.04L803.39 306.62Q786.21 293.73 786.21 292.56L786.99 286.7Q788.94 214.04 790.11 214.04Q793.63 207.79 810.43 199.59L810.43 199.2L809.64 198.81L809.25 199.2L806.91 199.2L806.91 198.42Q815.11 194.12 815.11 191.78ZM1330.57 194.56Q1330 195.13 1329.02 195.29Q1329.02 193.72 1329.8 192.8Q1330.37 192.11 1331.37 191.78L1331.37 192.17Q1331.37 193.76 1330.57 194.56ZM906.52 193.34L907.69 193.34L908.08 194.51L908.08 195.29L907.69 195.29L906.52 194.51L906.52 193.34ZM874.1 195.29L875.66 194.12Q881.65 196.51 883.04 200.51Q883.47 201.73 883.47 203.1L883.47 203.89L882.3 203.89Q874.75 200.65 874.15 196.43Q874.1 196.06 874.1 195.68L874.1 195.29ZM1648.48 196.46L1649.65 196.46L1650.43 199.59L1650.43 201.15L1649.65 201.15L1648.48 199.59L1648.48 196.46ZM1068.55 197.25L1070.12 197.25L1071.29 203.89Q1070.52 209.27 1069.37 209.35Q1069.35 209.35 1069.34 209.35L1068.94 209.35Q1066.6 207.4 1066.6 205.45L1068.55 197.25ZM1170.9 199.59L1170.9 198.81Q1170.9 198.42 1172.85 197.25L1173.24 197.25L1173.24 198.42L1171.68 199.59L1170.9 199.59ZM1448.16 206.62L1449.34 205.84L1450.51 205.84L1450.9 206.62L1450.9 208.18Q1450.9 209.9 1450.06 210.57Q1449.76 210.81 1449.34 210.92L1448.16 209.35L1448.16 206.62ZM1324.73 212.87L1324.73 211.31Q1326.5 208.47 1328.59 208.21Q1328.81 208.18 1329.02 208.18L1330.98 208.18L1330.98 209.35Q1329.02 212.48 1326.29 213.65L1325.51 213.65L1324.73 212.87ZM1303.24 224.59Q1305.59 212.09 1308.71 208.96Q1309.14 208.96 1309.51 209.11Q1310.49 209.5 1311.05 210.92Q1306.37 224.59 1304.02 224.59L1303.24 224.59ZM774.49 210.92L775.66 210.14L775.66 239.04L774.88 240.21L774.1 240.21L773.71 237.87L774.49 210.92ZM1065.43 219.9L1065.43 217.95Q1065.43 215.75 1066.42 214.18Q1067.18 212.95 1068.55 212.09L1069.34 212.09Q1069.54 212.09 1069.73 212.15Q1070.94 212.56 1071.29 215.6Q1071.29 223.34 1070.52 223.42L1070.51 223.42Q1068.55 259.75 1067.38 259.75L1066.99 259.75L1066.21 244.12Q1066.99 229.67 1067.38 228.1Q1067.38 226.29 1067.03 224.54Q1066.56 222.16 1065.43 219.9ZM910.43 212.87L911.6 212.48Q914.81 214.62 915.09 217.09Q915.11 217.32 915.11 217.56L915.11 218.34L913.55 218.34L910.43 212.87ZM885.82 212.87L887.77 212.87Q892.46 216.78 892.46 226.54L892.46 228.1L891.68 228.1Q885.82 218.34 885.82 215.21L885.82 212.87ZM612.85 213.65L613.24 213.65Q614.02 213.65 614.8 215.6L614.41 217.56Q613.63 217.56 612.85 214.43L612.85 213.65ZM1348.55 214.82L1348.55 213.65Q1368.09 214.43 1384.1 217.95L1384.1 219.51L1379.02 219.9L1375.51 219.9Q1355.98 219.9 1348.55 214.82ZM254.72 247.25L254.72 246.85Q262.53 223.81 268.39 223.81L268.39 224.59Q268.39 226.93 263.71 232.01Q258.63 247.25 254.72 247.25ZM1418.87 223.81L1420.04 223.81L1420.04 224.98L1418.87 224.98L1418.87 223.81ZM1344.65 227.71L1344.65 226.93Q1404.31 229.27 1404.41 233.17L1404.41 233.18L1404.41 233.21Q1404.27 234.75 1388.01 234.75Q1377.98 234.75 1377.85 233.6L1377.85 233.57L1386.05 232.4L1386.05 231.62Q1352.46 229.67 1344.65 227.71ZM603.08 228.1L604.25 227.32L604.64 227.32Q606.99 230.06 606.99 235.14L606.21 235.14Q604.64 235.14 603.08 229.28L603.08 228.1ZM1632.07 257.01L1630.9 246.07Q1631.28 229.65 1633.9 229.29Q1633.96 229.28 1634.02 229.28L1634.05 229.28Q1635.59 229.41 1635.59 247.25L1635.59 256.23Q1635.59 274.29 1633.32 274.58Q1633.28 274.59 1633.24 274.59L1632.07 274.59L1631.68 270.68L1632.07 257.01ZM485.5 231.62L489.8 229.67L490.19 229.67L490.19 230.45Q489.43 232.48 488.01 233.19Q487.24 233.57 486.28 233.57L485.5 233.57L485.5 231.62ZM1303.24 229.67L1305.19 229.67L1306.76 230.45Q1306.43 233.68 1305.04 234.24Q1304.75 234.35 1304.41 234.35Q1304.18 234.35 1303.99 234.26Q1303.24 233.89 1303.24 232.01L1303.24 229.67ZM1334.88 230.84L1336.84 230.45L1336.84 233.18L1334.88 233.18L1334.88 230.84ZM1324.34 233.96L1324.34 233.57Q1324.76 232.58 1325.5 231.94Q1326.79 230.84 1329.02 230.84L1330.2 230.84L1331.37 232.4L1331.37 233.18L1324.73 233.96L1324.34 233.96ZM1419.27 234.5Q1419.26 234.43 1419.26 234.35Q1419.26 233.96 1422.38 233.18Q1429.49 233.18 1429.79 234.62Q1429.8 234.68 1429.8 234.75L1429.8 235.53L1426.29 235.92Q1419.59 235.92 1419.27 234.5ZM892.07 233.96L894.02 233.96L894.41 235.92L894.02 236.7L892.07 236.31L892.07 233.96ZM492.08 290.21Q488.21 290.02 485.5 266.78Q485.5 262.09 492.53 255.06Q503.47 241.78 533.16 235.14Q543.71 235.14 572.61 243.34Q580.45 245.83 581.14 249.63Q581.21 249.99 581.21 250.37L581.99 250.76Q584.33 272.25 587.85 288.26L587.85 290.21Q587.85 290.43 587.82 290.64Q587.56 292.74 584.72 294.51Q537.85 317.56 530.82 317.56Q525.74 316.78 523 315.21Q499.96 306.62 492.53 296.46L492.53 295.29L496.05 295.68L496.05 295.29L492.14 290.21Q492.11 290.21 492.08 290.21ZM601.91 240.6L603.08 241.39L603.08 241.78L601.91 241.78L601.91 240.6ZM1303.24 245.68L1303.24 244.51Q1307.15 246.85 1307.15 265.6L1306.76 265.6Q1305.28 263.53 1304.36 261.23Q1302.85 257.47 1302.85 253.1L1302.85 251.54Q1302.85 247.25 1303.24 246.07L1303.24 245.68ZM907.69 280.45L906.91 280.45Q910.82 247.64 914.33 247.64L915.11 247.64L915.11 253.1Q915.11 264.29 911.11 273.79Q909.66 277.23 907.69 280.45ZM895.97 248.03L896.75 248.03Q897.69 248.96 898.25 250.09Q899.1 251.78 899.1 253.89L897.93 255.06L897.53 255.06L895.97 253.5L895.97 248.03ZM602.3 248.81L604.64 248.81L604.64 250.37L603.47 251.54L602.3 250.37L602.3 248.81ZM590.97 259.75L592.14 258.57L592.53 258.57L593.71 259.75L593.71 260.92L592.14 261.31L590.97 259.75ZM605.03 259.75L606.21 259.75Q608.94 265.21 608.94 273.42L608.94 274.2L608.16 274.98Q608.12 274.98 608.08 274.98Q605.8 274.74 605.03 260.14L605.03 259.75ZM892.07 269.51L892.07 269.12Q892.07 266.47 893.19 264.44Q894.06 262.89 895.58 261.7L895.97 261.7L897.14 262.09L897.14 265.6Q897.14 266.82 896.58 267.66Q895.52 269.26 892.46 269.51L892.07 269.51ZM590.58 272.64L590.97 272.25L592.53 272.25L593.71 272.64L593.71 274.98L592.14 276.54L591.75 276.54L590.58 274.98L590.58 272.64ZM1655.51 276.93L1656.29 276.93Q1656.54 276.93 1656.77 277Q1658.67 277.6 1659.02 283.18Q1659.02 284.9 1658.19 285.57Q1657.88 285.81 1657.46 285.92L1656.68 285.92Q1656.38 285.84 1656.14 285.68Q1655.12 285 1655.12 282.79L1655.12 279.67L1655.51 276.93ZM1309.1 278.5L1310.27 278.5L1311.05 279.28L1311.05 280.06L1310.27 280.06L1309.1 279.28L1309.1 278.5ZM218.39 298.81L219.18 296.85Q225.82 286.31 232.07 280.45L232.07 281.62Q226.99 291.39 218.39 299.59L218.39 298.81ZM1312.62 285.53L1313.01 285.14Q1317.3 288.26 1317.3 291.39L1317.3 292.56Q1316.94 292.56 1316.59 292.47Q1314 291.82 1312.62 286.31L1312.62 285.53ZM1441.13 289.82L1440.35 288.65Q1440.59 288.07 1441 287.66Q1441.95 286.7 1443.87 286.7L1444.26 286.7L1445.82 288.26Q1445.72 288.68 1445.47 288.99Q1444.8 289.82 1443.09 289.82L1441.13 289.82ZM1075.19 293.73L1075.19 290.6L1076.76 289.43L1077.54 289.43L1078.31 290.21L1078.31 292.56L1076.76 293.73L1075.19 293.73ZM878.78 298.03L878.39 297.64Q878.78 295.29 883.86 292.95L884.64 293.34Q884.25 295.29 879.57 298.03L878.78 298.03ZM1657.85 298.03L1659.41 293.73Q1662.15 294.51 1662.54 304.28L1662.54 307.79L1661.76 309.35Q1657.85 307.01 1657.85 298.03ZM1643.01 296.46L1644.18 296.46L1644.96 297.25L1644.96 303.89L1644.18 304.67L1643.79 304.67L1643.01 302.32L1643.01 296.46ZM1075.98 298.03L1076.76 298.03L1076.76 299.59L1075.98 299.59L1075.98 298.03ZM788.59 302.93Q787.2 301.77 786.99 299.2L788.55 299.2L791.68 302.71L791.68 303.89Q789.74 303.89 788.59 302.93ZM328.16 304.28L329.72 302.32L331.28 302.32L331.28 303.5Q331.28 304.87 330.62 305.7Q330.14 306.3 329.33 306.62L328.94 306.62L328.16 305.84L328.16 304.28ZM1432.15 311.7L1431.37 311.31Q1433.13 307.2 1435.99 306.18Q1436.94 305.84 1438.01 305.84L1438.01 306.62Q1437.28 309.78 1435.34 310.97Q1434.16 311.7 1432.54 311.7L1432.15 311.7ZM1459.1 310.92L1458.71 310.53Q1458.71 310 1458.85 309.51Q1459.33 307.83 1461.45 306.62L1462.62 306.62Q1462.62 307.9 1462.11 308.92Q1461.52 310.08 1460.27 310.92L1459.1 310.92ZM1471.99 306.62L1472.38 306.62Q1473.69 306.62 1474.61 307.21Q1476.19 308.21 1476.68 310.92L1476.68 311.31L1475.9 312.09L1475.51 312.09Q1475.23 312.09 1474.97 312.02Q1473.03 311.54 1471.99 307.4L1471.99 306.62ZM878.78 312.48L878.78 310.92Q879.23 309.73 880.07 308.99Q881.44 307.79 883.86 307.79L884.64 307.79Q884.64 308.33 884.49 308.83Q883.77 311.19 879.57 312.48L878.78 312.48ZM285.19 310.14L286.75 308.57L291.05 308.57L291.44 309.35Q291.44 309.38 291.44 309.4Q291.34 310.54 286.75 311.31Q285.75 311.31 285.39 310.83Q285.19 310.56 285.19 310.14ZM623 308.96L624.18 308.96Q624.21 308.96 624.25 308.97Q626.16 309.09 627.69 315.21L627.69 316.39L626.52 316.39Q626.46 316.39 626.4 316.38Q624.52 316.24 623 311.31L623 308.96ZM1450.9 315.6L1449.73 314.82Q1450.28 312.44 1451.77 311.18Q1453.46 309.75 1456.37 309.75L1456.76 309.75L1456.76 310.53Q1456.76 310.85 1456.7 311.16Q1456.16 313.85 1450.9 315.6ZM479.64 310.92L480.43 310.14L481.21 310.14L482.38 311.31L482.38 312.09L480.43 312.09L479.64 311.31L479.64 310.92ZM236.36 313.65L226.6 313.65Q226.6 313.53 226.63 313.41Q227.08 311.7 234.02 311.7L236.36 311.7L237.53 312.48L236.36 313.65ZM610.89 316.39L612.07 315.21L614.02 315.21L615.97 317.56L615.97 318.34L614.41 319.9L614.02 319.9Q612.07 319.12 610.89 316.39ZM832.69 325.37L832.69 324.98Q832.69 321.85 854.57 316Q855.82 316 856.07 316.5Q856.13 316.62 856.13 316.78L856.13 317.56Q856.13 320.68 834.25 325.37L832.69 325.37ZM555.43 321.46L555.43 320.68Q556.6 317.95 569.88 316.39L571.44 316.39L571.44 316.78Q562.46 321.46 556.99 321.46L555.43 321.46ZM869.02 323.42L868.63 323.42Q868.63 320.68 876.44 317.56L876.83 317.56L878 318.34L878 318.73Q876.83 320.29 869.02 323.42ZM349.91 334.24Q348.42 333.42 347.69 331.23Q349.23 319.27 351.54 319.12Q351.57 319.12 351.6 319.12L352.77 319.12L353.94 333.57Q353.94 333.88 353.8 334.11Q353.42 334.75 351.99 334.75Q350.81 334.75 349.91 334.24ZM1423.02 321.11Q1422.15 322.62 1420.04 323.42L1419.26 323.42Q1419.26 321.46 1423.16 319.12L1423.55 319.51Q1423.43 320.39 1423.02 321.11ZM1447.77 320.29Q1447.77 321.85 1443.87 325.37L1442.3 325.37Q1442.3 324.56 1442.58 323.84Q1443.48 321.49 1447.38 320.29L1447.77 320.29ZM315.27 320.68L318.39 320.68L319.57 321.85L319.57 322.25L318.78 323.03Q315.4 322.27 315.27 321.16Q315.27 321.12 315.27 321.07L315.27 320.68ZM1655.51 321.46L1655.51 321.07Q1659.02 321.57 1660.28 323.53Q1660.98 324.62 1660.98 326.15L1660.98 326.93L1658.24 326.93Q1655.9 325.37 1655.51 323.81L1655.51 321.46ZM789.33 321.85L789.72 321.46Q795.58 321.46 806.13 324.98L816.68 322.64L819.02 322.64L820.19 324.59L820.19 324.98L812.38 328.89Q789.6 326.57 789.33 322.73Q789.33 322.68 789.33 322.64L789.33 321.85ZM619.88 323.42L620.66 321.85L622.22 321.85L624.18 324.2L624.18 324.98L623 325.76L621.44 325.76L619.88 324.2L619.88 323.42ZM1700.43 328.89L1698.87 328.89Q1698.87 326.93 1714.1 323.03L1714.88 323.81L1714.88 323.84Q1714.81 326.55 1700.43 328.89ZM1644.96 323.42L1645.74 323.42L1651.21 330.45Q1658.24 332.4 1658.24 333.18L1658.24 333.57L1657.46 334.75L1653.55 334.75Q1650.99 334.75 1649.18 333.58Q1645.73 331.38 1644.96 324.98L1644.96 323.42ZM523 326.15L524.18 324.98L529.25 324.98L530.43 325.76L530.43 326.15Q530.43 326.18 530.42 326.21Q530.32 327.34 526.13 328.1Q524.76 328.1 523.92 327.44Q523.33 326.96 523 326.15ZM325.82 329.67L328.16 327.71L330.5 327.71L332.07 329.28Q331.99 329.58 331.83 329.82Q331.15 330.84 328.94 330.84L326.6 330.84L325.82 329.67ZM1330.2 328.89L1331.37 328.89Q1334.1 329.28 1338.4 335.92L1336.84 334.75Q1330.98 332.4 1330.2 330.45L1330.2 328.89ZM298.47 329.67L300.03 329.67L300.03 330.84L298.47 330.84L298.47 329.67ZM1038.87 331.23L1038.48 330.45L1039.26 329.67L1047.06 329.67L1060.35 330.06L1060.35 331.23L1038.87 331.23ZM253.55 332.79L253.55 332.01Q261.36 330.45 279.33 330.45L279.72 330.45L282.07 330.84L282.07 332.01Q275.82 333.18 262.14 333.18L259.41 333.18L253.55 332.79ZM480.43 332.01L481.6 330.45L482.77 330.45Q492.14 336.7 500.74 339.04Q515.58 342.17 515.58 343.34L515.58 343.73Q505.82 343.73 499.96 341Q481.99 335.53 480.43 332.01ZM1028.31 330.45L1029.88 332.01L1029.88 334.75L1028.31 334.75L1027.54 333.57L1027.54 332.01L1028.31 330.45ZM1072.85 333.57L1071.68 332.4L1071.68 332.38Q1071.75 331.22 1078.31 330.45Q1080.27 331.23 1080.27 332.01L1078.71 333.57L1072.85 333.57ZM1358.32 330.45L1358.71 330.45Q1361.84 330.45 1366.91 333.18L1366.91 333.96L1366.52 334.35Q1358.32 332.4 1358.32 330.84L1358.32 330.45ZM229.72 335.92L229.72 334.75Q229.72 334.71 229.73 334.67Q229.89 333.16 236.75 332.4Q243.39 333.18 243.39 333.57Q241.44 336.7 231.28 336.7L230.5 336.7L229.72 335.92ZM186.75 337.48L185.58 335.92Q185.66 335.47 185.87 335.11Q186.79 333.57 190.27 333.57L193 333.57L194.57 335.53L194.57 335.92L193 337.48L186.75 337.48ZM1380.59 334.75L1381.76 334.75L1381.76 335.92L1380.59 335.92L1380.59 334.75ZM1423.64 340.44Q1423.03 340.6 1422.38 340.6Q1422.38 340.46 1422.39 340.31Q1422.62 337.35 1427.46 334.75L1428.63 334.75Q1426.68 339.63 1423.64 340.44ZM222.3 337.48L223.47 335.92L226.6 335.92L227.38 337.48L226.21 339.04L222.3 339.04L222.3 337.48ZM1036.91 336.31L1041.99 335.92Q1062.59 336.69 1062.68 338.63L1062.69 338.65L1059.96 339.04L1048.24 339.04Q1037.24 339.04 1036.92 337.2Q1036.91 337.15 1036.91 337.09L1036.91 336.31ZM1386.84 343.73L1395.04 344.51Q1395.34 344.35 1395.64 344.2Q1402.84 340.6 1411.84 340.6L1413.79 340.6Q1416.91 340.6 1418.04 342.1Q1418.32 342.48 1418.48 342.95Q1402.07 347.25 1389.96 347.25L1382.93 347.25L1381.37 346.07L1381.37 345.29Q1381.41 345.14 1381.48 345Q1382.11 343.73 1385.27 343.73L1386.84 343.73ZM763.64 381.19Q761.99 380.7 761.99 374.59L761.99 368.34Q761.99 365.39 763.46 363.91Q764.14 363.24 765.11 362.87Q766.99 362.87 767.36 363.62Q767.46 363.81 767.46 364.04L767.46 366Q767.46 374.59 763.94 381.23Q763.79 381.23 763.64 381.19ZM764.33 397.64L764.33 392.56L765.89 391L767.46 391Q767.5 391 767.53 391Q768.63 391.21 768.63 397.25L768.63 402.32L767.85 404.67L765.89 404.67Q764.33 401.15 764.33 397.64ZM774.49 430.84L775.66 429.67L776.44 429.67L778 430.84L778 432.01L777.22 433.18L775.66 433.18L774.49 431.62L774.49 430.84ZM756.91 430.84L759.25 430.84L760.43 432.01L760.03 433.18Q757.83 433.18 757.15 432.16Q756.98 431.92 756.91 431.62L756.91 430.84ZM784.25 432.01L785.43 430.84L787.38 430.84L788.55 432.01L788.55 433.18L787.38 434.35L785.43 434.35L784.25 432.79L784.25 432.01ZM749.88 440.6L750.66 439.43L758.08 439.43L761.6 440.21L761.6 441Q761.6 441.02 761.59 441.05Q761.45 442.18 755.35 442.56Q749.88 441.78 749.88 441L749.88 440.6Z" fill="#FBBC04" fill-opacity="1.000000" fill-rule="evenodd"/>
		<path id="Compact" d="M1710.96 297.29Q1711.27 296.83 1711.27 296.18Q1711.05 293.86 1710.95 293.86L1710.84 293.86Q1710.84 294.01 1710.79 294.03Q1710.78 294.03 1710.77 294.03L1710.67 294.03L1710.67 294.03Q1710.66 293.79 1705.18 293.65Q1704.48 293.16 1704.02 293.16Q1703.99 288.91 1703.85 288.9L1703.85 288.9L1700.72 288.2Q1699.8 288.73 1699.77 289.08Q1700.02 289.6 1700.02 290.13L1700.02 292.42Q1700.02 292.47 1700 292.52Q1699.88 293.04 1698.54 293.26L1698.26 293.26L1696.18 293.16L1691.4 292.73Q1686.73 292.91 1685.78 292.98Q1684.3 292.98 1683.82 293.67Q1683.72 293.81 1683.67 293.96Q1683.39 294.3 1683.18 294.68Q1682.44 295.97 1682.44 297.69L1682.51 300.4Q1682.51 301.1 1682.77 301.4Q1682.81 301.44 1682.85 301.48Q1683.11 301.69 1683.6 301.63Q1685.46 301.45 1685.46 301.38L1685.36 299.27L1685.36 298.64Q1685.36 298.08 1685.6 297.69Q1685.6 297.52 1685.67 297.38Q1685.87 296.95 1686.73 296.81Q1686.73 296.5 1694 296.07L1697.38 296.32L1697.48 296.28L1697.48 296.18L1697.24 296.18Q1696.61 296.07 1696.61 295.94L1696.61 295.93Q1696.68 295.72 1697.66 295.69L1697.87 295.69L1698.26 295.79L1697.7 296.28L1697.7 296.32Q1699.66 296.53 1699.66 296.71L1699.63 298.64L1699.66 301L1699.63 301.14L1699.56 301.14L1699.42 301L1699.42 300.75L1699.38 300.43L1699.31 300.43Q1699.31 300.43 1699.3 300.43Q1699.17 300.46 1699.14 301Q1699.14 301.52 1699.42 302.37L1699.49 302.37Q1699.95 301.84 1700.19 301.84L1701.74 302.3L1702.44 302.19L1702.55 302.19Q1702.76 302.19 1703.21 302.54Q1703.43 302.3 1703.43 302.12Q1703.43 302.12 1703.43 302.12Q1703.81 302.08 1703.81 297.97Q1703.81 296.61 1704.04 296.57Q1704.05 296.57 1704.06 296.57L1707.29 296.88Q1709.72 297.02 1710.84 297.44Q1710.91 297.37 1710.96 297.29ZM1710.32 294.81L1710.32 294.84L1710.25 294.91L1710.11 294.91L1710.11 294.81L1710.32 294.81ZM1710.11 296.21L1710.25 296.35L1710.25 296.71L1710.11 296.81L1709.96 296.81Q1709.65 296.81 1709.23 296.39L1709.23 296.32L1710.04 296.21L1710.11 296.21ZM1709.05 294.98L1708.95 295.09L1708.59 295.09L1708 294.98L1708 294.91L1708.14 294.91Q1708.7 294.91 1709.05 294.98ZM1707.47 295.12L1707.47 295.19Q1707.47 295.26 1707.26 295.34L1705.54 295.41L1704.73 295.41Q1703.91 295.41 1703.85 295.19Q1703.85 295.18 1703.85 295.16L1703.85 295.09L1703.95 294.98L1703.99 294.98L1707.47 295.12ZM1706.24 173.8L1706.24 173.48Q1706.24 172.39 1705.04 169.76Q1704.45 168.39 1703.81 167.72Q1702.79 166.17 1701.6 165.12Q1700.82 164.98 1700.79 164.84Q1699.77 164.73 1699.77 164.66Q1697.48 163.71 1696.64 163.71Q1692.81 163.75 1692.81 163.85L1692.81 163.85Q1692.66 164.52 1692.33 164.63Q1692.26 164.66 1692.18 164.66L1692.04 164.66L1691.93 164.52L1691.93 164.38L1692.11 164.38L1692.42 164.31Q1692.42 164.06 1692.3 163.94Q1692.21 163.87 1692.07 163.85Q1691.4 163.85 1690.14 164.17Q1688.2 164.17 1684.65 166.63Q1683.23 167.54 1682.8 168.79Q1682.76 168.94 1682.72 169.09Q1681.98 170.88 1681.98 171.69L1682.12 172.15L1682.12 172.36L1682.05 172.78L1681.42 174.89Q1681.42 175.52 1682.58 178.3Q1683.28 179.43 1683.46 179.88L1683.42 179.92Q1682.44 180.23 1681.7 180.8L1681.7 180.87L1682.82 183.19L1682.89 183.19Q1683 182.59 1683.07 182.59L1683.14 182.59L1683.42 182.77L1683.67 182.73L1683.77 182.73Q1684.93 183.19 1686.73 183.19Q1687.54 183.19 1689.15 182.84Q1689.52 182.84 1689.61 182.68Q1689.64 182.62 1689.64 182.55L1689.64 181.96L1689.79 181.11L1689.79 181.01Q1689.7 180.86 1689.58 180.84Q1689.56 180.83 1689.54 180.83Q1689.26 180.41 1689.15 180.41L1688.2 180.44L1688.1 180.44Q1687.5 180.44 1686.55 179.25Q1685.39 177.81 1684.58 177.39Q1683.81 176.16 1683.81 175.1L1683.81 174.54Q1683.81 172.43 1685.11 170.07Q1686.73 168.25 1690.56 166.84Q1692.07 166.03 1695.41 166.03Q1697.34 166.03 1699.35 166.91Q1700.42 167.34 1701.09 168.11Q1701.19 168.23 1701.28 168.35Q1702.72 170.6 1703.64 171.44L1703.71 171.44Q1703.39 170.81 1702.2 169.37L1702.2 169.23L1702.27 169.23L1702.55 169.3Q1703.99 170.92 1704.06 171.55L1703.81 171.8L1703.95 173.17L1703.85 174.19Q1703.43 176.79 1702.76 177.35Q1702.34 177.88 1700.02 178.48Q1698.57 179.28 1698.01 179.28L1698.01 179.43Q1698.01 179.53 1698.19 179.88Q1698.19 181.27 1698.61 181.41Q1698.66 181.43 1698.71 181.43L1698.75 181.43L1698.89 181.32L1699 181.36Q1699.35 181.71 1701.67 181.71L1704.97 181.71Q1705.1 181.71 1705.16 181.65Q1705.22 181.59 1705.22 181.46Q1705.92 180.34 1705.92 180.2Q1705.92 179.6 1705.82 179.46Q1705.36 179.99 1704.97 179.99L1704.87 179.99L1704.87 179.92Q1705.08 179.74 1705.15 179.53Q1705.12 179.34 1705.03 179.3Q1705 179.28 1704.97 179.28L1704.45 179.46L1704.38 179.46Q1704.36 179.46 1704.34 179.46Q1704.15 179.43 1703.99 179.18L1703.99 178.97Q1703.99 178.72 1705.01 177.6Q1706.24 175.52 1706.24 173.8ZM1705.36 172.29L1705.46 172.29Q1705.47 172.29 1705.48 172.3Q1705.61 172.35 1705.61 172.68L1705.61 172.71L1705.57 172.82Q1705.55 172.82 1705.53 172.81Q1705.39 172.77 1705.36 172.36L1705.36 172.29ZM1705.61 174.57L1705.61 174.61Q1705.61 175.26 1705.51 175.28Q1705.5 175.28 1705.5 175.28L1705.39 175.21L1705.39 175.14L1705.5 174.57L1705.61 174.57ZM1704.27 169.27L1704.34 169.27Q1704.53 169.45 1704.66 169.67Q1704.92 170.07 1705.01 170.57L1705.01 170.6L1704.97 170.67L1704.94 170.67Q1704.41 169.9 1704.27 169.3L1704.27 169.27ZM1704.27 175.91Q1704.52 174.4 1704.66 174.4Q1704.8 174.4 1704.88 174.47Q1704.97 174.56 1704.97 174.75Q1704.97 175.03 1704.69 175.7Q1704.34 176.09 1704.34 176.44L1704.27 176.44L1704.13 176.33L1704.13 176.09L1704.27 175.91ZM1703.64 178.48L1703.64 178.58Q1703.64 178.86 1703.29 179.18L1703.25 179.18L1703.14 179.04L1703.14 179Q1703.14 178.76 1703.57 178.48L1703.64 178.48ZM1703.28 289.16Q1703.33 289.11 1703.43 289.11Q1703.45 289.11 1703.47 289.12Q1703.57 289.16 1703.57 289.43L1703.57 290.91Q1703.57 292.61 1703.39 292.63L1703.39 292.63L1703.32 292.63Q1703.18 291.4 1703.18 289.96L1703.18 289.43Q1703.18 289.23 1703.28 289.16ZM1703.39 299.62L1703.57 300.08L1703.57 300.43Q1703.57 300.55 1703.51 300.63Q1703.42 300.78 1703.18 300.82Q1703.11 300.82 1703.08 300.79Q1703.07 300.77 1703.07 300.75L1703.07 299.94Q1703.07 299.38 1703.29 298.6L1703.39 298.6L1703.39 299.62ZM1703.14 300.96L1703.21 301.07L1703.21 301.45L1703.18 301.45Q1703.17 301.45 1703.16 301.45Q1703.04 301.39 1703.04 301.07L1703.07 300.96L1703.14 300.96ZM1702.9 169.02L1702.9 168.91Q1703.05 169 1703.07 169.12Q1703.07 169.14 1703.07 169.16L1703.07 169.23Q1702.99 169.19 1702.94 169.12Q1702.91 169.07 1702.9 169.02ZM1702.69 289.6L1702.76 289.68L1702.76 290.06Q1702.72 293.1 1702.31 293.15Q1702.31 293.16 1702.3 293.16Q1702.3 293.16 1702.29 293.16Q1702.12 293.13 1702.12 291.96Q1702.12 289.66 1702.46 289.61Q1702.47 289.6 1702.48 289.6L1702.69 289.6ZM1702.44 168.67L1702.44 168.53Q1702.55 168.53 1702.61 168.58Q1702.69 168.65 1702.69 168.81L1702.55 168.81L1702.44 168.67ZM1702.44 178.93L1702.55 179L1702.55 179.04L1702.44 179.18L1702.3 179.04L1702.37 178.93L1702.44 178.93ZM1702.51 277.9L1702.44 277.9Q1702.27 275.01 1701.88 273.82Q1700.47 270.66 1698.89 269.99Q1697.34 268.65 1696.36 268.65L1694.07 267.7Q1692.39 267.7 1691.05 267.42L1689.86 267.53Q1687.92 267.53 1684.37 270.48Q1683.81 270.69 1682.79 273.08Q1682.09 275.3 1682.09 276.42L1682.16 276.98L1683.32 280.6Q1683.77 281.18 1684.14 281.79Q1684.32 282.09 1684.48 282.4L1685.71 284.33Q1685.71 284.4 1684.48 285.63Q1685.39 286.34 1685.64 287.14Q1685.66 287.42 1685.8 287.51Q1685.88 287.57 1685.99 287.57Q1686.2 287.5 1686.38 287.07Q1687.2 286.94 1687.22 286.73Q1687.22 286.73 1687.22 286.72Q1688.73 286.12 1689.47 285.56Q1689.54 285.56 1689.61 285.54Q1690.04 285.39 1690.14 284.23L1690.28 284.23L1690.28 284.26L1690.24 284.54L1690.28 284.68L1690.42 284.68Q1690.91 284.19 1690.91 284.12Q1689.43 282.64 1689.22 282.57L1689.15 282.57L1688.62 282.71Q1687.99 282.71 1685.92 280.32Q1685.85 280.21 1685.79 280.1Q1684.55 277.78 1684.55 274.8L1685.92 272.94Q1686.76 271.25 1687.82 270.94Q1688.8 270.83 1688.98 270.66L1689.12 270.66L1689.33 270.76Q1691.37 270.23 1691.4 270.09L1693.02 270.34Q1693.24 270.31 1693.26 270.22Q1693.27 270.21 1693.27 270.2L1693.02 269.74Q1693.58 269.74 1693.83 269.99L1693.58 270.34Q1693.9 270.66 1695.55 271.15Q1697.41 271.78 1698.01 272.91Q1698.96 274.98 1698.96 276.18L1698.82 278.46Q1698.55 280.67 1697.93 280.78Q1697.9 280.78 1697.87 280.78L1696.75 280.36Q1696.36 280.36 1695.73 281.38Q1695.25 281.55 1695.23 281.75Q1695.23 281.76 1695.23 281.76Q1695.48 282.26 1695.48 282.75L1695.83 282.71L1695.97 282.71Q1697.7 284.09 1698.29 284.19Q1698.68 284.61 1698.82 284.61L1698.89 284.61Q1699.24 284.47 1699.91 283.52L1700.23 282.89L1700.23 282.71L1700.4 282.26Q1702.02 280.01 1702.02 279.3Q1702.2 278.21 1702.51 277.9ZM1702.34 297.06L1702.44 297.16L1702.44 297.41L1702.2 300.08L1702.2 300.12Q1702.11 300.12 1702.05 300.07Q1701.98 300.01 1701.98 299.87L1701.98 299.73L1702.12 298.92L1702.09 298.32Q1702.12 297.08 1702.3 297.06Q1702.3 297.06 1702.3 297.06L1702.34 297.06ZM1702.16 257.12L1702.05 252.76Q1702.05 252.55 1701.49 251.57Q1700.12 249.46 1698.5 248.89Q1696.18 248.72 1695.97 248.65Q1695.96 248.65 1695.95 248.65Q1695.69 248.69 1695.55 249.63Q1696.15 249.84 1696.15 249.98L1696.22 250.19Q1696.22 251.39 1696.39 251.46Q1697.78 251.6 1698.73 252.32Q1698.74 252.33 1698.75 252.34Q1699.14 252.34 1699.52 254.2L1699.31 255.64Q1699.31 257.35 1698.46 258.19Q1698.26 258.38 1698.01 258.53Q1696.74 259.26 1695.37 259.66Q1695.11 259.73 1694.85 259.79Q1694.79 259.79 1694.76 259.76Q1694.71 259.72 1694.71 259.62L1694.71 259.41Q1695.09 258.84 1695.09 257.51L1695.09 257.3L1695.06 255.71Q1695.06 253.92 1694.07 252.09Q1693.9 251.53 1693.23 250.97Q1691.93 249.84 1690.49 249.39Q1690.04 249.1 1689.54 248.97Q1689.12 248.86 1688.66 248.86L1687.64 248.86Q1686.79 248.86 1686.14 249.22Q1685.93 249.34 1685.74 249.49Q1684.2 250.27 1683.98 250.51Q1683.73 250.81 1683.51 251.13Q1682.75 252.27 1682.51 253.75L1682.51 253.92Q1682.51 255.61 1682.93 256.98Q1682.96 257.01 1684.58 261.16Q1682.58 263.45 1682.51 264.01L1682.51 264.05Q1682.51 264.29 1683.42 265.21Q1684.34 266.44 1684.76 266.44L1684.83 266.44Q1684.83 266.09 1685.99 264.89Q1687.54 263.59 1688.59 263.59L1692.07 263.73L1692.95 263.69Q1694.88 263.69 1695.45 263.13Q1697.84 262.68 1698.64 261.9Q1699.73 261.51 1701.67 259.48Q1702.16 257.68 1702.16 257.12ZM1701.73 166.61Q1701.6 166.44 1701.6 166.17Q1701.87 166.24 1701.96 166.41Q1702.02 166.5 1702.02 166.63L1702.02 166.77L1701.91 166.77Q1701.8 166.71 1701.73 166.61ZM1700.4 271.99L1700.54 271.99L1700.54 272.03Q1701.91 274.14 1701.91 275.65L1701.88 275.65Q1701.77 275.65 1701.63 274.98L1701.11 273.82L1700.4 271.99ZM1701.7 278.71L1701.67 278.92L1701.49 278.92L1701.49 278.74L1701.56 278.64L1701.67 278.64L1701.7 278.71ZM1701.53 300.82L1701.67 300.96L1701.67 301.42L1701.6 301.52Q1701.54 301.5 1701.5 301.47Q1701.39 301.37 1701.39 301.14L1701.39 300.96L1701.49 300.82L1701.53 300.82ZM1701.42 289.85L1701.53 289.99L1701.53 290.31Q1701.53 291.47 1701.39 291.89L1701.32 291.89L1701.28 291.85L1701.25 290.91L1701.28 290.03Q1701.28 289.92 1701.33 289.88Q1701.37 289.85 1701.42 289.85ZM1701.35 256.63L1701.46 256.7L1701.46 256.87L1701.28 256.98L1701.21 256.94L1701.21 256.73L1701.35 256.63ZM1701.18 259.3L1701.18 259.37Q1701.18 259.55 1700.89 259.83L1700.82 259.83L1700.82 259.79Q1700.82 259.58 1701.11 259.3L1701.18 259.3ZM1700.89 253.75L1701 253.75Q1701.14 254.06 1701.14 254.84L1701.14 254.98L1701 254.98Q1700.79 254.41 1700.79 254.1Q1700.79 253.78 1700.89 253.75Q1700.89 253.75 1700.89 253.75ZM1700.96 289.85L1700.86 292.73L1700.75 292.8L1700.72 292.8L1700.65 292.52Q1700.65 289.87 1700.89 289.85L1700.89 289.85L1700.96 289.85ZM1700.93 232.48L1700.93 232.44Q1700.86 231.49 1700.79 231.32Q1700.79 230.88 1700.57 230.66Q1700.35 230.44 1699.91 230.44L1697.98 230.47L1697.84 230.58L1697.84 231.49L1696.75 231.53L1683.46 231.53Q1681.1 231.74 1680.26 231.74L1677.76 231.74Q1676.18 231.74 1676.04 231.6Q1676.04 231.27 1675.89 231.06Q1675.81 230.94 1675.69 230.86L1675.27 230.86L1675.23 230.79L1675.23 230.54Q1675.34 230.54 1675.37 230.5Q1675.37 230.49 1675.37 230.47L1675.37 230.37L1675.23 230.33Q1675.05 230.33 1674.7 230.58L1674.67 230.58Q1674.63 230.58 1674.56 230.37L1674.39 230.33L1674.35 230.37Q1672.84 231.1 1672.63 231.88Q1672.63 231.95 1673.12 232.62L1672.95 235.08Q1672.95 235.75 1673.12 236.34L1673.79 236.17Q1674.43 236.17 1674.85 235.86Q1674.98 235.77 1675.09 235.64Q1675.21 235.64 1675.27 235.7Q1675.34 235.76 1675.34 235.89L1675.37 235.89L1675.58 235.64Q1675.58 235.42 1675.68 235.28Q1675.88 235.01 1676.46 235.01L1676.81 235.01L1679.27 234.97L1680.89 234.73L1681.35 234.73Q1682.82 234.73 1683.21 234.52L1683.35 234.73Q1683.35 235.43 1683.18 236.41Q1682.58 237.54 1682.58 237.93Q1682.58 238.87 1683.46 241.41Q1683.46 242.57 1683.95 243.06Q1684.18 243.08 1684.34 243.19Q1684.48 243.28 1684.58 243.44Q1684.79 244.11 1685.57 244.75L1685.6 244.75L1685.71 244.64L1685.99 244.96Q1686.27 245.24 1688.38 246.54Q1688.38 246.89 1692.56 247.38Q1693.02 247.38 1694.21 247.03Q1695.41 246.68 1697.62 244.46Q1698.16 243.77 1698.59 243.02Q1699.47 241.49 1699.95 239.72L1699.95 239.58L1699.38 236.87L1699.49 236.52L1699.42 235.6Q1699.52 235.18 1699.7 235.11Q1699.73 234.55 1699.91 234.44Q1699.95 234.44 1699.99 234.46Q1700.16 234.54 1700.16 234.97L1700.23 234.97Q1700.23 234.97 1700.23 234.97Q1700.37 234.96 1700.44 234.37Q1700.93 233.67 1700.93 232.48ZM1700.79 207.83Q1700.82 207.83 1700.89 207.44Q1700.72 204.74 1700.4 202.38Q1699.88 202.1 1699.73 201.89L1699.66 201.89L1699.63 201.93Q1699.63 201.93 1699.63 201.94Q1699.61 202.17 1698.71 202.35L1698.43 202.35Q1698.18 202.35 1698.02 202.22Q1697.93 202.16 1697.87 202.07Q1697.86 202.07 1697.85 202.07Q1697.51 202.09 1697.2 202.66Q1697.38 203.65 1697.38 204.32Q1697.38 204.86 1697.17 204.96Q1697.12 204.98 1697.06 204.98L1695.13 204.91L1686.9 204.67Q1686.7 204.67 1686.61 204.57Q1686.56 204.51 1686.55 204.42Q1686.34 203.02 1686.1 203.02L1686.09 203.02Q1685.67 201.57 1685.36 201.57L1685.32 201.57Q1683.18 201.89 1683.18 202.24L1683.18 202.24L1682.89 206.81Q1682.96 208.5 1683.04 208.71Q1683.04 208.91 1683.12 209.06Q1683.39 209.5 1684.48 209.45L1685.32 209.41L1685.6 209.41Q1685.66 209.39 1685.7 209.36Q1686.09 209.1 1686.09 208.25L1686.09 208.18Q1685.88 208.15 1685.85 208.07Q1685.85 208.05 1685.85 208.04L1685.85 207.9L1685.99 207.76L1693.34 207.66L1696.18 207.66L1696.36 207.69Q1697.24 208.92 1697.24 209.91Q1697.24 210.54 1696.99 211.17Q1695.55 213.56 1694.78 213.56L1694.71 213.56L1694.71 213.53L1694.88 213.21Q1694.88 213.2 1694.88 213.19Q1694.84 213 1694 212.96Q1693.55 212.96 1692.77 213.18L1688.91 213.1Q1687.82 213.1 1686.94 213.28Q1686.8 213.28 1686.73 213.21Q1686.66 213.14 1686.66 213Q1686.34 211.94 1686.13 211.94L1685.99 211.94Q1684.37 211.94 1684.21 212.43Q1684.2 212.48 1684.2 212.54L1684.27 212.89L1684.02 215.88L1684.2 216.76Q1684.37 216.87 1686.13 217.25Q1686.15 217.25 1686.17 217.25Q1686.31 217.21 1686.38 216.87Q1686.42 216.71 1686.5 216.59Q1686.9 215.99 1688.2 215.99L1689.22 216.02L1691.75 216.02L1692.56 215.95Q1693.9 216.02 1694.21 216.09Q1694.29 216.12 1694.36 216.16Q1695.39 216.69 1695.59 218.84Q1695.59 220.36 1694.83 221.17Q1694.69 221.31 1694.53 221.44Q1694.23 221.44 1694.22 221.5Q1694.21 221.5 1694.21 221.51L1694.36 221.79L1694.36 222.03L1694.29 222.32Q1693.55 223.27 1692.98 223.27L1690.88 223.34L1690.8 223.34Q1689.43 223.09 1686.69 223.12Q1686.2 223.22 1685.96 223.02Q1685.66 222.77 1685.74 222.07Q1685.74 221.58 1685.52 221.43Q1685.42 221.37 1685.29 221.37L1684.83 221.37L1683.88 221.54L1683.81 221.54L1683.46 221.44L1683.42 221.44L1682.96 221.89Q1682.7 221.89 1682.68 221.96Q1682.68 221.96 1682.68 221.96L1682.68 222.32L1682.75 224.35L1682.61 225.48Q1682.61 226.6 1682.86 228.08L1682.86 228.57Q1683.39 228.57 1684.44 228.5Q1686.37 228.5 1686.51 228.02Q1686.52 227.98 1686.52 227.94Q1686.23 227.1 1686.23 226.82L1686.23 226.68Q1686.24 226.65 1686.26 226.63Q1686.35 226.5 1686.62 226.5L1687.57 226.5Q1694.11 225.73 1694.78 225.41Q1696.43 225.41 1698.79 222.42Q1699.88 220.87 1699.88 219.43Q1699.88 219.12 1699.63 218.62Q1697.73 215 1697.73 214.65L1697.77 214.51Q1697.94 214.44 1699 213.63Q1699.07 213.58 1699.14 213.53Q1700.54 212.47 1700.54 209.55L1700.51 207.76L1700.51 207.69L1700.54 207.69L1700.79 207.83ZM1700.4 275.4L1700.58 275.4Q1700.79 276 1700.82 277.55Q1700.79 278.1 1700.69 278.11Q1700.69 278.11 1700.68 278.11Q1700.33 277.86 1700.33 275.79L1700.4 275.4ZM1700.75 297.59L1700.75 297.76Q1700.75 298.32 1700.37 298.89L1700.3 298.89L1700.3 298.82Q1700.58 297.62 1700.65 297.59L1700.75 297.59ZM1699.8 250.58L1699.88 250.58Q1700.58 251.18 1700.58 251.53L1700.58 251.57L1700.47 251.57Q1699.8 250.93 1699.8 250.62L1699.8 250.58ZM1700.54 278.43L1700.58 278.43L1700.58 278.85Q1700.58 279.17 1700.46 279.22Q1700.43 279.23 1700.4 279.23L1700.26 279.13Q1700.33 278.47 1700.52 278.43Q1700.53 278.43 1700.54 278.43ZM1700.09 301.24Q1700.09 300.5 1700.4 299.55Q1700.41 299.55 1700.41 299.55Q1700.54 299.57 1700.54 300.5L1700.54 301.28L1700.44 301.38L1700.23 301.38L1700.09 301.24ZM1700.4 206.88L1700.51 206.95L1700.51 207.2L1700.44 207.23Q1700.31 207.23 1700.25 207.17Q1700.19 207.11 1700.19 206.99L1700.3 206.88L1700.4 206.88ZM1700.07 230.91Q1700.15 230.86 1700.26 230.86Q1700.31 230.86 1700.35 230.88Q1700.44 230.94 1700.44 231.14L1700.44 231.21Q1700.44 231.38 1700.35 231.47Q1700.31 231.51 1700.26 231.53L1700.16 231.53Q1700.07 231.5 1700.01 231.43Q1699.95 231.35 1699.95 231.21L1699.95 231.03Q1699.99 230.95 1700.07 230.91ZM1700.19 180.13L1700.26 180.2L1700.26 180.3L1700.16 180.34L1700.05 180.23L1700.09 180.13L1700.19 180.13ZM1700.02 204.32L1700.16 204.21L1700.16 204.21Q1700.23 204.21 1700.26 204.84L1700.23 205.02L1700.22 205.02Q1700.08 205.01 1700.02 204.32ZM1700.26 279.55L1700.26 279.62L1700.16 279.76L1700.05 279.76L1700.05 279.66L1700.23 279.55L1700.26 279.55ZM1699.77 274.03L1699.91 274.03Q1699.98 274.03 1700.23 274.8L1700.23 274.87L1700.12 274.98Q1699.95 274.98 1699.77 274.17L1699.77 274.03ZM1699.73 207.55L1699.77 207.55Q1699.8 207.55 1699.82 207.56Q1700.16 207.65 1700.16 208.92L1700.16 209.98L1700.09 209.98L1699.66 207.69L1699.73 207.55ZM1700.02 271.32L1700.16 271.5L1700.16 271.64L1700.12 271.64L1699.91 271.43L1699.91 271.32L1700.02 271.32ZM1699.98 255.29L1700.12 255.47L1700.12 255.75L1699.91 255.96L1699.8 255.85L1699.8 255.4L1699.98 255.29ZM1699.35 179.64L1699.42 179.64Q1699.63 179.64 1699.91 179.92L1699.91 180.06Q1699.84 180.16 1699.7 180.23Q1699.52 180.23 1699.35 179.64ZM1699.73 206.81L1699.84 206.88L1699.84 207.02L1699.66 207.09L1699.59 206.95L1699.59 206.88L1699.66 206.81L1699.73 206.81ZM1699.45 276.35L1699.52 276Q1699.54 276 1699.55 276Q1699.8 276.06 1699.8 277.19L1699.8 277.58L1699.7 277.58Q1699.49 277.51 1699.45 276.39L1699.45 276.35ZM1699.77 211.1L1699.77 211.31Q1699.77 212.14 1699.58 212.19Q1699.57 212.19 1699.56 212.19L1699.49 212.19L1699.49 212.12Q1699.49 211.91 1699.66 211.1L1699.77 211.1ZM1699.77 278.28L1699.77 278.6L1699.59 279.23L1699.52 279.23Q1699.59 278.29 1699.7 278.28L1699.7 278.28L1699.77 278.28ZM1699.35 194.33L1699.63 193.35Q1699.63 192.01 1698.82 189.8Q1697.77 187.27 1694.21 185.61Q1693.58 184.84 1691.96 184.84Q1689.4 183.89 1688.94 183.89Q1688.13 184.21 1687.18 184.66Q1685.67 184.66 1682.82 187.86Q1681.8 190.39 1681.8 190.99L1681.8 191.66Q1681.8 193.21 1681.95 194.44Q1681.95 195.77 1683.28 197.18Q1687.61 200.31 1688.27 200.45Q1689.71 200.66 1690.59 200.91L1691.86 200.8L1692.32 200.87L1693.02 200.55Q1694 200.41 1694.04 200.31L1694.04 200.27Q1693.69 200.17 1693.69 200.1L1693.69 200.03Q1694.64 199.53 1695.02 199.39Q1695.11 199.39 1695.15 199.44Q1695.16 199.46 1695.16 199.5L1695.16 199.53Q1695.16 199.82 1694.67 200.1L1694.67 200.17Q1695.45 200.17 1696.99 198.37Q1697.27 198.03 1697.53 197.67Q1698.56 196.25 1699.35 194.65L1699.35 194.33ZM1699.38 234.59L1699.49 234.66L1699.49 234.73L1699.38 234.8L1699.28 234.8L1699.17 234.73L1699.17 234.66L1699.28 234.59L1699.38 234.59ZM1699.49 240.03L1699.49 240.1Q1699.38 240.93 1699.21 240.95Q1699.21 240.95 1699.21 240.95L1699.17 240.95L1699.17 240.74Q1699.17 240.46 1699.35 240.03L1699.49 240.03ZM1699.35 231.21L1699.42 231.32L1699.42 231.49Q1699.42 231.49 1699.42 231.49Q1699.38 231.6 1699.07 231.6L1698.96 231.6L1698.71 231.56L1698.71 231.49Q1698.83 231.3 1699 231.24Q1699.08 231.21 1699.17 231.21L1699.35 231.21ZM1699.31 202.8L1699.38 203.47L1699.38 204.25L1699.28 204.35L1699.27 204.35Q1699.14 204.34 1699.14 202.91L1699.21 202.8L1699.31 202.8ZM1699.21 220.03Q1699.28 220.03 1699.38 220.24L1699.38 220.28Q1698.96 222.07 1698.61 222.07L1698.5 222.07L1698.5 221.4Q1698.5 221.27 1698.54 221.16Q1698.63 220.86 1698.96 220.63Q1699.14 220.03 1699.21 220.03ZM1698.86 294.67L1699.14 294.67Q1699.29 294.67 1699.35 294.74Q1699.37 294.77 1699.38 294.81L1699.38 294.84L1699.14 294.91L1699 294.91Q1698.84 294.91 1698.78 294.84Q1698.76 294.81 1698.75 294.77L1698.86 294.67ZM1699.31 281.41L1699.31 281.59L1699.28 281.59L1699.17 281.48L1699.17 281.41L1699.31 281.41ZM1699.03 272.76L1699.24 272.91L1699.14 273.01L1699 272.91L1699 272.76L1699.03 272.76ZM1698.96 235.75L1699 235.64Q1699 235.64 1699.01 235.64Q1699.1 235.65 1699.17 235.92L1699.17 235.96L1699.07 236.03L1698.96 235.92L1698.96 235.75ZM1698.75 208.53L1698.79 208.53Q1698.79 208.53 1698.79 208.54Q1699.14 208.59 1699.14 211L1699.14 211.31Q1699.14 211.45 1699.09 211.56Q1698.95 211.89 1698.4 212.05L1698.26 212.05L1698.26 211.94Q1698.96 211.14 1698.96 210.36L1698.75 208.53ZM1698.19 217.36L1698.26 217.36Q1698.27 217.36 1698.29 217.36Q1698.76 217.4 1699.14 218.59L1699 218.59Q1698.19 217.6 1698.19 217.39L1698.19 217.36ZM1698.58 193.98Q1698.69 193.84 1698.89 193.77Q1698.89 193.77 1698.9 193.77Q1699 193.78 1699.03 194.23Q1698.97 194.82 1698.71 194.94Q1698.65 194.96 1698.57 194.96L1698.4 194.96L1698.36 194.89L1698.4 194.54Q1698.4 194.18 1698.58 193.98ZM1698.96 241.3L1699 241.3Q1698.84 242.24 1698.46 242.34Q1698.41 242.35 1698.36 242.35L1698.36 242.25Q1698.51 241.74 1698.85 241.41Q1698.9 241.35 1698.96 241.3ZM1698.86 205.65L1698.96 205.72L1698.96 205.86L1698.89 205.86L1698.79 205.72L1698.79 205.65L1698.86 205.65ZM1696.92 188L1697.1 188.11Q1698.36 189.45 1698.75 191.01Q1698.93 191.7 1698.93 192.43L1698.82 193L1698.79 193Q1698.57 193 1698.33 190.64L1698.36 190.43L1698.26 190.15Q1696.78 188.21 1696.78 188L1696.92 188ZM1698.71 179.64L1698.86 179.78L1698.86 179.99L1698.75 180.06L1698.71 180.06Q1698.64 180.03 1698.6 179.98Q1698.54 179.9 1698.54 179.78L1698.54 179.64L1698.71 179.64ZM1698.86 207.52L1698.79 207.66L1698.71 207.66L1698.64 207.55L1698.64 207.52L1698.71 207.44L1698.86 207.52ZM1698.86 219.89L1698.86 220.1Q1698.86 220.39 1698.74 220.44Q1698.73 220.45 1698.71 220.45L1698.64 220.38L1698.64 220.24Q1698.64 219.92 1698.73 219.89Q1698.74 219.89 1698.75 219.89L1698.86 219.89ZM1698.33 239.23Q1698.5 237.78 1698.64 237.78Q1698.82 237.85 1698.86 238.66L1698.86 239.23L1698.82 239.54L1698.64 239.54L1698.5 239.4L1698.47 239.4L1698.4 239.58L1698.47 240L1698.47 240.1L1698.36 240.21L1698.26 240.07L1698.26 239.54Q1698.26 239.24 1698.32 239.23Q1698.32 239.23 1698.33 239.23ZM1698.43 283.31L1698.47 283.31Q1698.64 283.31 1698.73 283.4Q1698.82 283.49 1698.82 283.66L1698.75 283.73L1698.57 283.73L1698.36 283.56L1698.36 283.52L1698.43 283.31ZM1698.12 271.08L1698.12 271.01Q1698.51 271.1 1698.63 271.34Q1698.68 271.44 1698.68 271.57Q1698.4 271.57 1698.12 271.08ZM1698.22 202.73Q1698.28 202.7 1698.36 202.7Q1698.37 202.7 1698.37 202.7Q1698.64 202.73 1698.64 204.84L1698.64 204.98L1698.54 204.98Q1698.01 204.14 1698.01 203.33Q1698.01 202.85 1698.22 202.73ZM1698.64 295.79L1698.5 295.97L1698.4 295.97L1698.4 295.93L1698.54 295.79L1698.64 295.79ZM1698.5 212.75L1698.5 212.82Q1698.19 213.24 1697.78 213.42Q1697.77 213.42 1697.77 213.42L1697.73 213.42L1697.73 213.32Q1697.87 213.07 1698.36 212.75L1698.5 212.75ZM1698.26 294.74L1698.43 294.77L1698.43 294.84L1698.36 294.91L1697.87 294.91L1697.87 294.77L1698.08 294.74L1698.26 294.74ZM1697.91 210.4Q1698.15 209.41 1698.26 209.41Q1698.26 209.41 1698.26 209.41Q1698.33 209.42 1698.36 209.66L1698.36 209.87Q1698.36 210.19 1698.29 210.5Q1698.13 211.12 1697.66 211.66L1697.55 211.59L1697.55 211.56Q1697.55 211.07 1697.91 210.4ZM1698.26 212.26L1698.33 212.33Q1698.27 212.47 1698.16 212.53Q1698.08 212.58 1697.98 212.58L1697.91 212.58Q1697.91 212.44 1697.98 212.36Q1698.06 212.26 1698.26 212.26ZM1698.01 196.12L1698.12 196.23L1698.12 196.3Q1697.94 196.79 1697.65 196.88Q1697.59 196.9 1697.52 196.9Q1697.52 196.51 1698.01 196.12ZM1697.77 216.41L1697.84 216.37Q1698.01 216.44 1698.12 216.97L1698.08 217.08Q1698.01 217.08 1697.95 217.05Q1697.79 216.96 1697.77 216.62L1697.77 216.41ZM1696.08 232.44Q1696.36 232.23 1696.89 232.23Q1698.07 232.23 1698.12 232.46Q1698.12 232.47 1698.12 232.48Q1698.12 232.48 1698.12 232.49Q1698.07 232.79 1696.08 232.79L1696.01 232.79Q1694 232.79 1687.78 232.62L1685.36 232.69Q1682.37 232.58 1682.37 232.44L1682.37 232.44L1682.05 232.62L1681.98 232.62Q1681.9 232.62 1681.84 232.59Q1681.66 232.52 1681.56 232.27L1681.56 232.23L1681.63 232.19L1684.65 232.12L1685 232.12L1686.06 232.27Q1686.8 232.12 1687.89 232.12L1690.42 232.12Q1691.93 232.12 1694.78 232.44L1695.34 232.19L1696.01 232.44L1696.08 232.44ZM1695.94 205.93L1697.7 205.93Q1697.89 205.93 1697.96 206.02Q1697.97 206.05 1697.98 206.07Q1697.96 206.11 1697.93 206.14Q1697.77 206.32 1697.41 206.32L1697.38 206.32Q1693.56 206.28 1693.55 206.01L1693.55 206L1693.55 205.97L1693.62 205.9L1693.97 205.9L1694.53 205.97L1694.88 205.72Q1695.41 205.93 1695.94 205.93ZM1697.7 207.52L1697.77 207.52Q1697.78 207.52 1697.79 207.52Q1697.91 207.54 1697.98 207.83L1697.98 208.11L1697.87 208.11Q1697.86 208.11 1697.85 208.11Q1697.73 208.08 1697.7 207.66L1697.7 207.52ZM1697.48 219.61Q1697.48 219.5 1697.66 219.4L1697.73 219.4Q1697.77 219.4 1697.8 219.42Q1697.98 219.51 1697.98 219.96L1697.98 220.03Q1697.98 221.05 1697.66 221.15L1697.66 221.16Q1697.48 221.05 1697.48 219.61ZM1697.94 242.95L1697.94 243.06Q1697.94 243.14 1697.91 243.21Q1697.86 243.31 1697.73 243.37L1697.66 243.37L1697.62 243.23Q1697.73 242.99 1697.87 242.95L1697.94 242.95ZM1697.38 190.78L1697.55 190.78Q1697.91 191.52 1697.91 193.21L1697.91 193.24L1697.8 193.52Q1697.7 193.52 1697.38 190.78ZM1697.7 194.37L1697.73 194.44Q1697.73 194.89 1697.27 195.46L1697.24 195.46L1697.17 195.42Q1697.17 195.03 1697.7 194.37ZM1697.34 193.84L1697.38 193.84Q1697.39 193.83 1697.39 193.83Q1697.47 193.8 1697.66 194.12L1697.62 194.19L1697.34 193.84ZM1697.66 212.89L1697.66 212.93Q1697.45 213.53 1697.38 213.53L1696.99 213.53Q1697.26 212.93 1697.58 212.9Q1697.6 212.89 1697.62 212.89L1697.66 212.89ZM1697.24 165.61L1697.31 165.61Q1697.46 165.61 1697.56 165.68Q1697.6 165.71 1697.62 165.75L1697.62 165.89L1697.38 165.89L1697.24 165.71L1697.24 165.61ZM1696.85 214.93L1697.17 214.93Q1697.27 214.98 1697.32 215.06Q1697.38 215.15 1697.38 215.28L1697.38 216.16Q1696.75 215.5 1696.75 215.07L1696.85 214.93ZM1696.52 238.17Q1696.53 238.17 1696.54 238.17Q1696.54 238.17 1696.55 238.17Q1697.03 238.22 1697.31 240.46L1697.31 240.74L1697.1 240.88L1696.99 240.7L1696.75 238.77L1696.54 238.87L1696.46 238.87L1696.43 238.63Q1696.43 238.19 1696.52 238.17ZM1697.2 250.19L1697.27 250.3L1697.2 250.37L1696.92 250.37Q1696.77 250.37 1696.71 250.3Q1696.69 250.27 1696.68 250.23L1696.68 250.19L1697.2 250.19ZM1696.71 269.88L1696.75 269.88Q1696.76 269.88 1696.77 269.88Q1697.04 269.9 1697.27 270.34L1697.27 270.41L1697.2 270.41Q1696.92 270.41 1696.61 270.02L1696.61 269.99L1696.71 269.88ZM1697.17 222.7L1697.17 222.81Q1696.46 223.62 1696.08 223.62L1696.01 223.62L1696.01 223.37L1696.11 223.37Q1696.54 222.84 1696.96 222.7L1697.17 222.7ZM1697.1 244.46L1697.17 244.5Q1696.86 245.08 1696.52 245.1Q1696.51 245.1 1696.5 245.1L1696.5 245.03Q1696.68 244.78 1697.1 244.46ZM1696.32 190.85L1696.36 190.85L1696.36 190.85Q1696.71 190.86 1696.99 193.24L1696.85 193.91L1696.78 193.91L1696.22 191.41L1696.22 190.92L1696.32 190.85ZM1696.99 241.76L1696.99 241.9L1696.89 241.97L1696.82 241.97L1696.82 241.9L1696.96 241.76L1696.99 241.76ZM1696.96 164.45L1696.96 164.52L1696.46 164.52Q1696.16 164.52 1696.12 164.41Q1696.11 164.4 1696.11 164.38L1696.11 164.31L1696.43 164.31L1696.96 164.45ZM1696.33 188.43Q1696.32 188.41 1696.32 188.39Q1696.38 188.39 1696.43 188.41Q1696.7 188.49 1696.85 188.99L1696.75 188.99Q1696.35 188.72 1696.33 188.43ZM1696.54 235.08L1696.75 235.29L1696.75 235.39L1696.64 235.39L1696.46 235.22L1696.46 235.08L1696.54 235.08ZM1696.64 240.7L1696.64 240.98Q1696.57 241.72 1696.43 241.83L1696.36 241.72L1696.36 241.48Q1696.36 240.84 1696.61 240.7L1696.64 240.7ZM1696.01 233.43L1696.22 233.43Q1696.54 233.43 1696.6 233.55Q1696.6 233.56 1696.61 233.57L1696.61 233.64Q1696.02 233.57 1696.01 233.43Q1696.01 233.43 1696.01 233.43ZM1696.5 196.76L1696.57 196.76Q1696.01 197.74 1695.76 197.92L1695.73 197.92L1695.62 197.85L1695.62 197.74Q1696.08 196.86 1696.5 196.76ZM1696.36 220.84L1696.46 220.94L1696.46 221.61Q1696.08 222.14 1695.76 222.39L1695.59 222.39L1695.52 222.28Q1695.52 221.61 1696.36 220.84ZM1696.43 237.05L1696.43 237.12Q1696.24 237.23 1696.18 237.4Q1696.15 237.48 1696.15 237.57L1696.15 237.68L1696.29 239.33L1696.29 239.65Q1695.94 241.19 1695.48 241.48Q1695.17 241.92 1694.75 242.24Q1694.38 242.52 1693.93 242.71Q1693.78 242.85 1693.61 242.96Q1692.91 243.41 1691.93 243.41Q1691.26 243.41 1691.1 243.69Q1691.09 243.71 1691.09 243.73L1690.98 243.73L1690.63 243.44L1690.56 243.44L1690.1 243.52L1689.54 243.52Q1688.2 243.52 1686.8 241.72Q1686.41 240.6 1685.99 240.18Q1685.21 238.84 1685.21 237.78L1685.21 237.64Q1685.21 237.61 1685.23 237.58Q1685.27 237.49 1685.43 237.47L1686.09 235.99Q1687.25 234.44 1687.36 234.44L1687.89 234.52Q1694.43 234.69 1694.43 234.8Q1694.99 235.11 1695.73 236.62L1695.76 236.62L1695.8 236.55L1695.76 236.52L1695.76 236.31L1695.83 236.31Q1696.22 237.05 1696.43 237.05ZM1696.36 206.88L1696.36 206.95Q1696.36 206.97 1696.36 206.98Q1696.31 207.13 1695.76 207.13L1695.48 207.13Q1694.59 207.13 1694.54 206.91Q1694.53 206.9 1694.53 206.88L1694.71 206.81L1695.16 206.81Q1695.8 206.81 1696.36 206.88ZM1696.29 245.27L1696.29 245.38L1696.18 245.41L1696.11 245.41L1696.11 245.38L1696.18 245.27L1696.29 245.27ZM1695.77 196Q1695.82 195.78 1696.11 195.6Q1696.12 195.6 1696.12 195.6Q1696.19 195.61 1696.22 195.84Q1696.22 195.97 1696.16 196.04Q1696.08 196.12 1695.9 196.12L1695.83 196.12L1695.76 196.09Q1695.76 196.05 1695.77 196ZM1696.11 242.35L1696.22 242.5Q1696 243.03 1695.64 243.16Q1695.53 243.2 1695.41 243.2L1695.34 243.2L1695.34 243.09Q1695.63 242.41 1696.01 242.36Q1696.04 242.35 1696.08 242.35L1696.11 242.35ZM1688.38 187.02L1688.59 187.02Q1690.56 187.19 1692 187.51Q1692.39 187.51 1693.58 188.64Q1694.46 188.99 1695.38 189.9Q1695.38 189.9 1695.38 189.9Q1695.87 189.94 1696.04 194.02L1696.04 194.44Q1695.73 195.49 1694.32 196.48Q1693.34 197.85 1693.09 197.85Q1692.53 197.71 1691.54 197.71Q1690.28 197.71 1689.71 197.92L1689.4 197.92Q1687.96 197.99 1685.85 196.02L1684.79 194.75Q1684.44 193.98 1684.12 192.43L1684.2 191.8Q1684.62 190.08 1685.36 189.44Q1685.99 188.11 1686.34 188.11Q1687.43 187.51 1688.38 187.02ZM1696.01 294.81L1696.01 294.91L1695.73 294.98L1695.59 294.98L1695.59 294.91L1695.73 294.81L1696.01 294.81ZM1695.97 269.99L1695.97 270.09L1695.73 270.09Q1694.57 269.71 1694.57 269.57L1694.57 269.46L1694.71 269.35L1694.88 269.35L1695.97 269.99ZM1695.87 213.88L1695.87 213.95Q1695.87 214.15 1695.78 214.21Q1695.75 214.22 1695.73 214.23L1695.59 214.23L1695.59 214.16Q1695.59 214.02 1695.66 213.95Q1695.73 213.88 1695.87 213.88ZM1695.59 164.24L1695.76 164.24L1695.76 164.38L1695.66 164.45L1695.59 164.38L1695.59 164.24ZM1695.48 197.39L1695.48 197.53Q1695.48 198.06 1694.85 198.66L1694.81 198.66L1694.71 198.55L1694.71 198.41Q1695.02 197.6 1695.48 197.39ZM1695.34 188.39L1695.34 188.53L1695.27 188.53L1695.2 188.46L1695.2 188.39L1695.34 188.39ZM1695.06 214.93L1695.16 214.97Q1695.16 215.28 1695.06 215.32Q1695.06 215.32 1695.06 215.32L1694.95 215.32L1694.78 215.11L1694.78 215.07Q1694.78 215 1695.06 214.93ZM1695.13 223.44L1695.13 223.51Q1694.71 223.93 1694.26 223.97Q1694.22 223.97 1694.18 223.97L1694.11 223.97Q1694.11 223.72 1695.06 223.44L1695.13 223.44ZM1694.25 187.65L1694.5 187.65Q1694.81 187.83 1694.95 188.04L1694.95 188.21L1694.92 188.21Q1694.67 188.21 1694.25 187.76L1694.25 187.65ZM1694.71 233.39L1694.78 233.5L1692.18 233.5L1692.07 233.43L1692.07 233.35L1692.28 233.32L1694.71 233.39ZM1694.53 245.62L1694.57 245.73Q1694.37 246.02 1694.15 246.04Q1694.13 246.05 1694.11 246.05L1694.04 246.05L1694.04 245.91L1694.53 245.62ZM1694.25 186.28L1694.25 186.25Q1694.45 186.25 1694.53 186.34Q1694.53 186.35 1694.53 186.35L1694.53 186.42Q1694.33 186.42 1694.27 186.33Q1694.26 186.31 1694.25 186.28ZM1694.53 243.41L1694.53 243.59Q1694.18 244.01 1693.3 244.01L1693.16 244.01L1693.16 243.94Q1694.04 243.41 1694.32 243.41L1694.53 243.41ZM1694.46 263.03L1694.46 263.06Q1694.46 263.13 1694.29 263.2L1694.11 263.17Q1694.11 263.1 1694.39 263.03L1694.46 263.03ZM1692.32 165.33L1692.95 165.33Q1694.3 165.33 1694.32 165.5Q1694.32 165.5 1694.32 165.5L1694.32 165.54Q1692.32 165.82 1690.31 166.49L1690.14 166.49L1690.14 166.35L1690.21 166.28Q1691.47 165.4 1692.32 165.33ZM1694.11 164.62L1694.11 164.66Q1694.11 164.67 1694.1 164.69Q1694.04 164.8 1693.76 164.8L1693.55 164.8L1693.44 164.69L1693.58 164.59L1693.9 164.59L1694.11 164.62ZM1692.95 224.6L1692.95 224.46L1693.58 224.04Q1693.76 224.11 1693.76 224.18L1693.76 224.5Q1693.76 224.5 1693.75 224.5Q1693.68 224.6 1693.48 224.6L1692.95 224.6ZM1693.55 206.88L1693.62 206.95L1693.62 206.99L1693.44 207.16L1693.27 207.16L1693.2 207.09L1693.2 207.02L1693.34 206.88L1693.55 206.88ZM1693.06 185.58Q1693.05 185.56 1693.05 185.54Q1693.21 185.54 1693.29 185.62Q1693.37 185.7 1693.37 185.86L1693.3 185.86Q1693.08 185.73 1693.06 185.58ZM1693.34 205.97L1693.34 206L1693.27 206.11L1693.09 206.11L1693.09 206.07L1693.2 205.97L1693.34 205.97ZM1693.16 262.15L1693.23 262.25L1693.23 262.29Q1692.98 262.5 1692.53 262.5L1692.53 262.43Q1692.53 262.29 1693.05 262.15L1693.16 262.15ZM1690.56 293.33L1691.54 293.23Q1693.02 293.26 1693.05 293.5Q1693.05 293.5 1693.05 293.51L1693.05 293.51Q1693.04 293.65 1691.44 293.65L1690.63 293.65Q1689 293.65 1688.98 293.44Q1688.98 293.44 1688.98 293.44L1688.98 293.33L1689.33 293.3L1690.56 293.33ZM1692.84 251.57L1693.02 251.95L1693.02 251.99L1692.95 251.99Q1692.77 251.92 1692.7 251.79Q1692.67 251.72 1692.67 251.64L1692.67 251.57L1692.84 251.57ZM1692.63 243.97L1692.63 244.15L1692.46 244.18L1692.39 244.15L1692.42 243.97L1692.63 243.97ZM1687.57 252.16Q1687.59 251.81 1689.68 251.57Q1690.1 251.57 1690.73 252.2Q1691.93 253.18 1692.53 255.85Q1692.53 256.8 1691.79 259.41Q1691.56 260.11 1691.22 260.17Q1691.19 260.18 1691.16 260.18L1691.12 260.25Q1689.19 260.46 1687.75 260.78L1687.57 260.78Q1687.55 260.78 1687.53 260.77Q1687.34 260.75 1687.18 260.5Q1685.11 256.28 1685.11 255.64Q1685.18 255.19 1685.32 254.94Q1686.09 252.87 1687.01 252.2L1687.11 252.2L1687.08 252.52L1687.11 252.52L1687.57 252.16L1687.57 252.16ZM1691.3 268.65L1691.4 268.65Q1692.18 268.79 1692.18 268.9L1692.18 269L1692 269.04Q1690.96 269.2 1690.88 269Q1690.88 268.99 1690.88 268.97Q1690.91 268.83 1690.99 268.75Q1691.1 268.65 1691.3 268.65ZM1692.04 262.04L1691.96 262.15L1691.93 262.15L1691.93 262.04L1692.04 262.04ZM1691.82 200.31L1691.93 200.41L1691.93 200.45L1691.82 200.55L1691.68 200.55L1691.54 200.41L1691.68 200.31L1691.82 200.31ZM1691.33 213.77L1691.65 213.84L1691.65 213.85Q1691.64 214.02 1690.28 214.09Q1689.71 214.09 1689.4 213.95L1689.4 213.84L1690.03 213.77L1691.33 213.77ZM1691.51 164.48L1691.51 164.59L1691.4 164.66L1691.3 164.66L1691.3 164.62L1691.4 164.48L1691.51 164.48ZM1688.45 245.38L1688.45 245.31Q1691.4 245.66 1691.4 245.98L1691.4 246.05L1690.91 246.05Q1689.9 246.05 1689.05 245.69Q1688.74 245.56 1688.45 245.38ZM1691.37 244.32L1691.37 244.39Q1691.28 244.48 1691.18 244.53Q1691.03 244.6 1690.84 244.6L1690.73 244.5L1690.73 244.46L1690.88 244.32L1691.37 244.32ZM1691.3 262.08L1691.3 262.29L1691.16 262.29L1691.05 262.18L1691.16 262.08L1691.3 262.08ZM1691.09 223.86L1691.23 223.93L1691.23 224.14L1691.05 224.32L1689.68 224.32L1689.5 224.14L1689.5 224.07L1689.64 223.97L1689.75 223.97L1691.09 223.86ZM1690.74 269.71Q1690.75 269.72 1690.77 269.74Q1689.54 270.37 1689.01 270.37L1688.91 270.37Q1688.91 270.35 1688.91 270.32Q1688.96 270.04 1689.5 269.85Q1690.03 269.53 1690.21 269.53Q1690.56 269.53 1690.74 269.71ZM1690.31 261.06L1690.42 261.16L1690.42 261.2L1690.31 261.3L1690.21 261.3L1690.17 261.16L1690.31 261.06ZM1690.31 262.32L1690.31 262.43Q1689.82 262.68 1689.08 262.68L1689.01 262.68L1688.94 262.6Q1688.94 262.6 1688.94 262.6Q1688.96 262.39 1690.28 262.32L1690.31 262.32ZM1689.43 243.97L1689.47 243.97Q1689.71 243.97 1689.89 244.07Q1690.03 244.15 1690.14 244.29L1690.14 244.32L1690.1 244.43L1689.79 244.43Q1689.68 244.43 1689.6 244.38Q1689.46 244.28 1689.43 244.01L1689.43 243.97ZM1690.03 165.29L1690.1 165.4L1689.89 165.61L1689.79 165.61L1689.75 165.5L1689.75 165.47Q1689.78 165.4 1689.83 165.35Q1689.91 165.29 1690.03 165.29ZM1689.89 186.32L1690.03 186.46L1690.03 186.49L1689.93 186.49L1689.82 186.42L1689.82 186.32L1689.89 186.32ZM1688.31 200.03Q1688.38 199.89 1689.43 199.85Q1689.78 199.89 1689.79 199.95L1689.79 199.96L1689.79 200.03L1689.26 200.41L1689.15 200.41Q1688.7 200.1 1688.31 200.1L1688.31 200.03ZM1689.15 184.38L1689.26 184.45L1689.26 184.49L1689.05 184.56L1688.87 184.56L1688.84 184.49L1688.84 184.48Q1688.84 184.42 1689.15 184.38ZM1689.15 261.02L1689.19 261.06L1689.19 261.2L1689.15 261.3L1688.94 261.3L1688.8 261.16L1688.8 261.13L1688.94 261.02L1689.15 261.02ZM1689.15 165.33L1689.15 165.36L1688.45 165.89Q1688.38 165.89 1688.34 165.85Q1688.31 165.82 1688.31 165.75L1688.31 165.71Q1688.31 165.7 1688.31 165.69Q1688.34 165.46 1689.08 165.33L1689.15 165.33ZM1689.15 285L1689.15 285.14L1688.55 285.63Q1687.32 286.09 1686.38 286.65L1686.27 286.55L1686.3 286.34Q1688.59 285 1689.01 285L1689.15 285ZM1688.77 295.44L1688.77 295.51Q1688.77 295.53 1688.76 295.55Q1688.71 295.73 1688.2 295.76Q1688.05 295.76 1687.99 295.68Q1687.97 295.65 1687.96 295.62L1687.96 295.55Q1687.96 295.52 1687.98 295.5Q1688.04 295.41 1688.24 295.41L1688.52 295.41L1688.77 295.44ZM1688.38 284.3L1688.45 284.3Q1688.45 284.39 1688.41 284.48Q1688.31 284.72 1687.89 284.82L1687.75 284.82L1687.61 284.75Q1687.61 284.54 1688.38 284.3ZM1688.2 181.18L1688.24 181.29L1688.24 181.78L1688.2 181.82L1688.13 181.82L1688.13 181.82Q1688.03 181.81 1687.96 181.43L1687.96 181.36L1688.13 181.18L1688.2 181.18ZM1688.1 223.97L1688.2 224.07L1688.2 224.14L1687.89 224.14L1687.89 224.04L1687.96 223.97L1688.1 223.97ZM1687.5 199.75L1687.5 199.57L1688.13 199.6L1687.89 199.64L1687.89 199.71Q1687.9 199.75 1687.89 199.79Q1687.84 199.91 1687.39 199.89L1687.5 199.75ZM1687.99 269.6L1687.99 269.71Q1687.77 270.03 1687.51 270.06Q1687.49 270.06 1687.46 270.06Q1687.46 269.94 1687.51 269.85Q1687.59 269.69 1687.82 269.6L1687.99 269.6ZM1687.29 181.68L1687.43 181.68Q1687.52 181.68 1687.58 181.71Q1687.71 181.77 1687.78 181.96Q1687.78 182.05 1687.74 182.08Q1687.71 182.1 1687.68 182.1L1687.5 182.1Q1687.22 182.1 1687.08 181.96Q1687.08 181.91 1687.09 181.87Q1687.13 181.75 1687.29 181.68ZM1687.5 185.19L1687.61 185.33L1687.61 185.34Q1687.59 185.65 1685.99 185.89L1685.95 185.89L1685.92 185.86Q1685.93 185.79 1685.97 185.72Q1686.2 185.25 1687.25 185.19L1687.5 185.19ZM1686.83 199.01L1686.87 199.01Q1687.45 199.18 1687.46 199.39Q1687.46 199.39 1687.46 199.39L1687.46 199.5L1687.39 199.5Q1686.87 199.3 1686.83 199.04Q1686.83 199.02 1686.83 199.01ZM1687.25 181.18L1687.32 181.29Q1687.3 181.34 1687.27 181.38Q1687.18 181.46 1687.01 181.46L1686.76 181.46L1686.66 181.36L1686.66 181.32L1686.8 181.18L1687.25 181.18ZM1686.87 242.78L1686.9 242.74Q1687.11 242.78 1687.32 243.23L1687.29 243.3Q1687.11 243.27 1686.87 242.85L1686.87 242.78ZM1687.08 224.07L1687.25 224.21L1687.11 224.32L1687.04 224.32L1686.9 224.21L1687.04 224.07L1687.08 224.07ZM1686.66 282.12L1686.66 282.05Q1687.16 282.19 1687.24 282.47Q1687.25 282.52 1687.25 282.57L1687.15 282.57Q1686.69 282.29 1686.66 282.12ZM1686.87 295.65L1687.25 295.79Q1687.18 296.04 1686.3 296.07L1685.99 296.07L1685.85 296Q1686.06 295.65 1686.87 295.65ZM1687.11 214.93L1687.22 215L1687.22 215.07L1687.11 215.11L1686.97 215.07L1687.01 214.93L1687.11 214.93ZM1687.01 270.37L1687.22 270.37Q1687.22 270.49 1687.17 270.58Q1687.09 270.74 1686.87 270.83L1686.69 270.83L1686.69 270.76Q1686.69 270.75 1686.69 270.73Q1686.71 270.54 1687.01 270.37ZM1687.01 294.32L1687.01 294.42L1686.94 294.49L1686.34 294.49L1686.27 294.42L1686.27 294.39L1686.48 294.32L1687.01 294.32ZM1686.94 167.23L1686.97 167.23Q1686.9 167.51 1685.99 168.18L1685.85 168.18Q1685.85 167.79 1686.94 167.23ZM1686.94 205.19L1686.94 205.93Q1686.59 205.91 1686.46 205.73Q1686.38 205.62 1686.38 205.44L1686.38 205.34L1686.38 205.33Q1686.39 205.23 1686.94 205.19ZM1686.76 166L1686.87 166.07L1686.87 166.14L1686.76 166.24L1686.66 166.14L1686.66 166.07L1686.76 166ZM1686.73 206.46L1686.8 206.46L1686.2 207.16Q1686.05 207.16 1686.03 207.11Q1686.02 207.1 1686.02 207.09L1686.02 206.88Q1686.02 206.77 1686.07 206.69Q1686.21 206.46 1686.73 206.46ZM1686.43 234.66Q1686.53 234.53 1686.76 234.52L1686.76 234.66L1686.45 234.94L1686.34 234.94Q1686.34 234.76 1686.43 234.66ZM1686.41 180.13L1686.48 180.2L1686.48 180.41L1686.41 180.41L1686.3 180.3L1686.3 180.13L1686.41 180.13ZM1686.48 181.32L1686.48 181.46L1686.45 181.46L1686.34 181.43L1686.34 181.32L1686.48 181.32ZM1686.3 214.72L1686.48 214.86L1686.48 215.11L1686.38 215.21L1686.34 215.21L1686.2 215.07L1686.2 214.83L1686.3 214.72ZM1685.99 225.34L1686.09 225.23L1686.16 225.23Q1686.32 225.23 1686.41 225.31Q1686.45 225.34 1686.48 225.37L1686.48 225.52L1686.34 225.59L1686.16 225.59L1685.99 225.44L1685.99 225.34ZM1686.3 166.38L1686.3 166.42Q1686.11 166.74 1685.88 166.77Q1685.86 166.77 1685.85 166.77L1685.78 166.77L1685.78 166.59Q1686.16 166.38 1686.27 166.38L1686.3 166.38ZM1686.27 269.74L1686.3 269.74L1686.3 269.95Q1685.6 271.18 1685.21 271.18L1685.14 271.18L1685.14 270.87Q1685.74 269.74 1686.27 269.74ZM1685.36 285.18L1685.57 285.18Q1686 285.18 1686.08 285.34Q1686.09 285.38 1686.09 285.42Q1685.92 286.02 1685.81 286.02L1685.78 286.02Q1685.29 285.6 1685.29 285.49L1685.29 285.28L1685.36 285.18ZM1685.78 179.88L1685.85 179.88Q1685.92 179.88 1685.99 180.06L1685.99 180.13L1685.88 180.13L1685.78 179.92L1685.78 179.88ZM1685.57 242.78L1685.71 242.78Q1685.81 242.82 1685.88 242.89Q1685.99 243.02 1685.99 243.23L1685.99 243.3Q1685.94 243.3 1685.9 243.29Q1685.68 243.23 1685.57 242.85L1685.57 242.78ZM1685.88 263.94L1685.88 264.05L1685.88 264.05Q1685.87 264.22 1685.32 264.36L1685.21 264.36L1685.21 264.26Q1685.21 264.25 1685.22 264.25Q1685.23 264.08 1685.67 263.94L1685.88 263.94ZM1685.14 203.12L1685.67 203.09Q1685.78 203.09 1685.82 203.14Q1685.85 203.17 1685.85 203.23L1685.85 203.58L1685.78 203.89L1685.67 203.89Q1685.52 203.5 1685.23 203.26Q1685.19 203.22 1685.14 203.19L1685.14 203.12ZM1685.71 251.04L1685.78 251.11L1685.78 251.18L1685.67 251.28L1685.6 251.28L1685.6 251.11L1685.67 251.04L1685.71 251.04ZM1685.6 227.2L1685.71 227.34L1685.71 227.41L1685.6 227.45Q1685.06 227.45 1685.04 227.35Q1685.04 227.35 1685.04 227.34L1685.18 227.2L1685.6 227.2ZM1685.6 168.42L1685.67 168.53Q1685.54 168.9 1685.29 169.15Q1685.21 169.23 1685.11 169.3L1685 169.16L1685 169.09Q1685.11 168.6 1685.38 168.47Q1685.48 168.42 1685.6 168.42ZM1685.67 208.39L1685.67 208.64L1685.57 208.75L1685.43 208.64L1685.46 208.39L1685.67 208.39ZM1684.93 279.9L1684.93 279.87Q1685.18 279.87 1685.64 280.85Q1685.63 280.85 1685.62 280.85Q1685.24 280.84 1684.9 279.97L1684.93 279.9ZM1685.6 181.53L1685.6 181.57L1685.53 181.68L1685.25 181.68L1685.25 181.64L1685.36 181.53L1685.6 181.53ZM1685.5 202.45L1685.5 202.56L1685.46 202.59L1683.7 202.8L1683.7 202.7L1683.7 202.69Q1683.71 202.42 1684.9 202.17Q1685.14 202.41 1685.41 202.45Q1685.45 202.45 1685.5 202.45ZM1685.46 166.94L1685.46 167.05Q1685.04 167.61 1684.65 167.86L1684.41 167.86L1684.41 167.65Q1684.65 167.23 1685.46 166.94ZM1685.25 204.7L1685.36 204.7L1685.43 204.98L1685.43 205.27L1685.36 205.48L1685.25 205.48L1685.21 205.27L1685.21 204.98L1685.25 204.7ZM1684.93 226.22L1684.97 226.18Q1685.36 226.36 1685.36 226.5Q1685.36 226.51 1685.35 226.52Q1685.32 226.6 1685.07 226.6L1685.04 226.6Q1685.02 226.59 1685.01 226.58Q1684.93 226.51 1684.93 226.36L1684.93 226.22ZM1685.21 262.85L1685.32 262.96L1685.32 263.13L1685.11 263.31L1685.04 263.31L1684.9 263.17L1684.9 263.13Q1684.97 262.96 1685.21 262.85ZM1685.21 186.49L1685.29 186.63Q1685.15 186.86 1684.96 186.9Q1684.91 186.91 1684.86 186.91L1684.86 186.77L1685.14 186.49L1685.21 186.49ZM1684.41 238.63L1684.44 238.63Q1684.72 238.63 1685.25 240.6Q1685.25 240.71 1685.2 240.73Q1685.19 240.74 1685.18 240.74L1685.11 240.74Q1684.83 240.74 1684.41 238.77L1684.41 238.63ZM1684.76 257.86L1684.83 257.86Q1685.07 257.96 1685.21 259.16L1685.21 259.3L1685.18 259.3Q1684.76 258.49 1684.76 258L1684.76 257.86ZM1684.83 224.21L1684.93 224.21Q1684.94 224.21 1684.94 224.21Q1685.11 224.24 1685.11 225.48L1685.11 225.55L1685.04 225.69Q1685.03 225.69 1685.02 225.69Q1684.83 225.65 1684.83 224.67L1684.83 224.21ZM1684.58 241.9L1684.58 241.86Q1684.83 241.86 1685.11 242.57L1685.11 242.6L1685.04 242.71L1685 242.71Q1684.86 242.6 1684.58 241.9ZM1684.97 207.13L1685.04 208.04L1685.04 208.32L1684.9 208.32L1684.83 207.8L1684.83 207.13L1684.97 207.13ZM1684.83 213.98L1684.97 214.09L1684.97 214.3L1684.83 214.41L1684.76 214.41L1684.72 214.19L1684.76 213.98L1684.83 213.98ZM1684.83 207.02L1684.79 207.02L1684.79 206.95Q1684.83 206.99 1684.83 207.02ZM1684.69 203.72L1684.79 203.82L1684.79 203.96L1684.69 204.14Q1684.55 205.37 1684.62 206.25L1684.58 207.16L1684.44 207.16Q1684.3 206.21 1684.27 205.34Q1684.27 205.25 1684.3 205.17Q1684.35 205.04 1684.51 204.95Q1684.28 203.92 1684.56 203.75Q1684.61 203.72 1684.69 203.72ZM1684.76 295.44L1684.79 295.44Q1684.75 295.76 1684.57 295.87Q1684.47 295.93 1684.34 295.93L1684.27 295.93L1684.27 295.69Q1684.41 295.48 1684.55 295.44L1684.76 295.44ZM1684.72 234.73L1684.76 234.76Q1684.76 235.29 1684.44 236.24L1684.65 237.19L1684.65 237.4L1684.48 237.5L1684.44 237.5L1684.09 236.8Q1684.3 234.75 1684.64 234.73Q1684.65 234.73 1684.65 234.73L1684.72 234.73ZM1684.62 207.55L1684.72 207.69Q1684.72 208.35 1684.57 208.39Q1684.56 208.39 1684.55 208.39L1684.41 208.39L1684.27 208.22Q1684.29 207.66 1684.52 207.57Q1684.56 207.55 1684.62 207.55ZM1684.58 263.66L1684.72 263.73L1684.72 263.87L1684.51 264.05L1684.44 264.05L1684.37 263.94L1684.37 263.8L1684.51 263.66L1684.58 263.66ZM1683.04 273.57Q1684.09 271.36 1684.62 271.04Q1684.69 271.04 1684.71 271.08Q1684.72 271.09 1684.72 271.11L1684.72 271.29Q1684.72 271.46 1684.58 271.64Q1683.88 272.13 1682.93 274.38L1682.82 274.38L1682.82 274.31L1683.04 273.57ZM1684.72 272.27L1684.72 272.38Q1684.2 273.29 1684.2 273.54L1684.2 273.57L1684.41 273.78L1684.41 273.85L1684.2 274.42Q1683.85 274.84 1683.75 275.32Q1683.7 275.51 1683.7 275.72L1683.7 275.75L1683.6 275.75L1683.46 275.61L1683.46 275.26L1684.02 273.54Q1684.44 272.27 1684.72 272.27ZM1684.34 222.81L1684.41 222.81Q1684.65 223.16 1684.65 223.34L1684.65 223.86Q1684.65 224.06 1684.56 224.12Q1684.54 224.14 1684.51 224.14Q1684.49 224.14 1684.48 224.13Q1684.34 224.04 1684.34 223.72L1684.34 222.81ZM1684.09 299.48L1684.09 299.34Q1684.27 299.34 1684.62 300.71L1684.55 300.78L1684.54 300.78Q1684.3 300.78 1684.09 299.48ZM1684.58 294.49L1684.58 294.56L1683.95 295.05Q1683.77 295.69 1683.7 295.69L1683.67 295.69L1683.56 295.62L1683.56 295.26Q1683.56 295.03 1683.67 294.87Q1683.87 294.56 1684.44 294.49L1684.58 294.49ZM1684.51 203.26L1684.51 203.33L1684.41 203.44L1684.16 203.44L1684.16 203.33L1684.27 203.26L1684.51 203.26ZM1684.48 169.48L1684.48 169.69Q1684.48 170.22 1684.22 170.41Q1684.21 170.42 1684.2 170.43L1684.12 170.43Q1684.34 169.48 1684.44 169.48L1684.48 169.48ZM1684.34 254.94L1684.44 255.05L1684.44 255.5L1684.37 255.61L1684.34 255.61L1684.33 255.61Q1684.23 255.6 1684.16 255.22Q1684.16 255.1 1684.22 255.02Q1684.26 254.97 1684.34 254.94ZM1683.6 279.44L1683.6 279.37Q1684.37 280.25 1684.37 280.6L1684.37 280.68L1684.34 280.68Q1684.28 280.62 1684.22 280.57Q1683.79 280.13 1683.6 279.44ZM1684.09 278.39L1684.12 278.39Q1684.14 278.39 1684.16 278.4Q1684.3 278.44 1684.34 278.85L1684.27 278.85Q1684.24 278.84 1684.22 278.82Q1684.09 278.73 1684.09 278.46L1684.09 278.39ZM1683.95 179.18L1684.02 179.18Q1684.09 179.2 1684.14 179.25Q1684.23 179.34 1684.23 179.53L1684.23 179.57L1684.2 179.57Q1684.04 179.48 1683.98 179.34Q1683.95 179.27 1683.95 179.18ZM1684.05 187.12L1684.05 187.37Q1683.7 188.99 1683.46 189.16L1683.46 188.78Q1683.46 187.58 1683.91 187.12L1684.05 187.12ZM1683.95 181.43L1684.02 181.46L1684.02 181.53L1683.95 181.64L1683.81 181.64L1683.77 181.46L1683.95 181.43ZM1683.63 207.41L1683.7 207.41Q1683.95 207.65 1683.98 207.92Q1683.98 207.96 1683.98 208.01L1683.91 208.01Q1683.7 207.83 1683.56 207.52L1683.63 207.41ZM1683.81 251.11L1683.95 251.21L1683.95 251.32Q1683.39 252.16 1683.18 252.94Q1682.89 254.27 1682.79 254.27L1682.75 254.27Q1682.75 253.39 1683 252.87Q1683.49 251.25 1683.81 251.11ZM1683.49 189.76L1683.6 189.76Q1683.6 190.32 1683.39 190.78L1683.32 190.78L1683.28 190.75Q1683.28 189.8 1683.47 189.76Q1683.48 189.76 1683.49 189.76ZM1683.46 168.74L1683.56 168.81L1683.56 169.12Q1683.56 169.62 1683.46 169.72Q1682.96 170.99 1682.82 171.02L1682.79 171.02L1682.72 170.85Q1682.72 170.28 1682.84 170.25Q1682.85 170.25 1682.86 170.25Q1683.32 168.77 1683.46 168.74ZM1683.53 170.46L1683.56 170.5Q1683.56 171.16 1682.93 173.03L1682.86 172.96L1682.86 172.71Q1682.86 171.37 1683.46 170.46L1683.53 170.46ZM1682.72 174.75Q1682.72 173.77 1683.18 173.34L1683.18 173.34Q1683.32 173.36 1683.32 174.5L1683.32 175.03Q1683.32 175.88 1683.15 175.91Q1683.15 175.91 1683.14 175.91L1683.07 175.91Q1683.06 175.91 1683.06 175.91Q1682.82 175.88 1682.72 174.75ZM1683.07 189.02L1683.11 189.02Q1683.12 189.03 1683.12 189.03Q1683.25 189.08 1683.25 189.41L1683.25 189.48L1683.14 189.55L1683.07 189.48L1683.07 189.02ZM1683.07 177.39L1683.18 177.46L1683.18 177.56L1683.14 177.6L1683.07 177.53L1683.07 177.39ZM1682.68 193.17L1682.75 193.17Q1682.85 193.23 1682.91 193.32Q1683.04 193.48 1683.04 193.73L1683.04 194.05Q1682.89 194.26 1682.75 194.3L1682.68 194.3Q1682.67 194.3 1682.66 194.29Q1682.51 194.25 1682.51 193.7Q1682.58 193.18 1682.68 193.17L1682.68 193.17ZM1682.51 195.1L1682.51 195.07Q1682.75 195.18 1682.93 195.67L1682.86 195.74Q1682.72 195.74 1682.51 195.1ZM1682.72 181.01L1682.79 181.53L1682.79 182.2L1682.72 182.2Q1682.58 182.2 1682.44 181.36L1682.44 181.18L1682.58 181.01L1682.72 181.01ZM1682.54 276.42L1682.58 276.42Q1682.58 276.42 1682.59 276.42Q1682.72 276.44 1682.79 276.91L1682.79 277.12L1682.61 277.26L1682.51 277.12L1682.44 277.16L1682.3 277.16Q1682.36 276.45 1682.53 276.42Q1682.54 276.42 1682.54 276.42ZM1681.91 174.26L1682.19 175.28Q1682.58 176.44 1682.58 176.75L1682.58 176.79L1682.47 176.79Q1681.7 175.38 1681.7 175.03L1681.7 174.82L1681.8 174.26L1681.91 174.26ZM1679.38 232.41Q1679.43 232.27 1679.98 232.27L1680.54 232.27Q1680.8 232.27 1680.94 232.4Q1681 232.46 1681.03 232.55Q1681.03 232.72 1680.96 232.75Q1680.95 232.76 1680.93 232.76L1680.75 232.76Q1679.98 232.76 1679.38 232.44Q1679.38 232.43 1679.38 232.41ZM1677.9 232.48L1678.36 232.48L1678.5 232.62L1678.5 232.76Q1678.5 232.76 1678.5 232.76Q1678.48 232.86 1677.94 232.86L1677.48 232.86L1677.27 232.79L1677.27 232.62Q1677.59 232.48 1677.9 232.48ZM1674.91 233.39L1675.02 233.5L1675.02 233.57L1674.91 233.71L1674.81 233.71L1674.7 233.64L1674.7 233.5L1674.84 233.39L1674.91 233.39ZM1674.91 231.81L1674.91 232.02L1674.81 232.12L1674.7 232.09Q1674.7 231.89 1674.79 231.83Q1674.82 231.81 1674.84 231.81L1674.91 231.81ZM1674.81 234.27L1674.91 234.37L1674.91 234.55L1674.81 234.66L1674.7 234.66L1674.6 234.55L1674.6 234.37L1674.74 234.27L1674.81 234.27ZM1674.04 231.18L1674.14 231.25L1674.14 231.91L1674.07 232.23L1674 232.23L1674 232.23Q1673.89 232.22 1673.86 231.67Q1673.93 231.18 1674 231.18L1674.04 231.18Z" fill="#FBBC04" fill-opacity="1.000000" fill-rule="evenodd"/>
	</g>
</svg>
